<mxfile host="app.diagrams.net" agent="Mozilla/5.0 (Macintosh; Intel Mac OS X 10_15_7) AppleWebKit/537.36 (KHTML, like Gecko) Chrome/129.0.0.0 Safari/537.36 Edg/129.0.0.0" version="26.0.4">
  <diagram name="Page-1" id="E4BUHWioRriA7pJ9MQBl">
    <mxGraphModel dx="974" dy="1905" grid="1" gridSize="10" guides="1" tooltips="1" connect="1" arrows="1" fold="1" page="1" pageScale="1" pageWidth="1654" pageHeight="1169" math="0" shadow="0">
      <root>
        <mxCell id="0" />
        <mxCell id="1" parent="0" />
        <UserObject label="" plantUmlData="{&#xa;  &quot;data&quot;: &quot;@startuml School Management System - ERD Diagram\n\n&#39; Layout and style settings\n!define primary_key(x) &lt;b&gt;PK x&lt;/b&gt;\n!define foreign_key(x) FK x\nskinparam linetype ortho\nhide methods\nhide stereotypes\nhide circle\n\nentity User {\n    primary_key(id)\n    schoolId\n    username\n    password\n    firstName\n    lastName\n    email\n    phone\n    address\n    lastLogin\n    isActive\n    fingerprint\n}\n\nentity Student {\n    primary_key(studentId)\n    foreign_key(userId)\n    grade\n    section\n    enrollmentDate\n    parentName\n    parentContact\n    gpa\n}\n\nentity Teacher {\n    primary_key(teacherId)\n    foreign_key(userId)\n    department\n    subjects\n    joiningDate\n    qualification\n}\n\nentity SectionHead {\n    primary_key(sectionId)\n    foreign_key(teacherId)\n    department\n}\n\nentity Principal {\n    primary_key(schoolId)\n    foreign_key(userId)\n    appointmentDate\n}\n\nentity Admin {\n    primary_key(adminId)\n    foreign_key(userId)\n    accessLevel\n}\n\nentity Assessment {\n    primary_key(id)\n    assessment_title\n    description\n    dueDate\n    totalMarks\n    subject\n    assignedTo\n}\n\nentity Exam {\n    primary_key(id)\n    name\n    subject\n    date\n    duration\n    totalMarks\n}\n\nentity ExamResult {\n    primary_key(id)\n    foreign_key(examId)\n    foreign_key(studentId)\n    marks\n    grade\n    remarks\n    date\n}\n\nentity TimeTable {\n    primary_key(id)\n    grade\n    section\n    schedule\n    validFrom\n    validTo\n}\n\nentity Session {\n    primary_key(id)\n    subject\n    foreign_key(teacherId)\n    startTime\n    endTime\n    day\n}\n\nentity Report {\n    primary_key(id)\n    type\n    date\n    foreign_key(generatedBy)\n    content\n}\n\nentity StudentRecord {\n    primary_key(studentId)\n    foreign_key(studentId)\n    currentGrade\n    academicYear\n    subjects\n    attendance\n    achievements\n}\n\nentity Log {\n    primary_key(id)\n    action\n    timestamp\n    foreign_key(userId)\n    details\n}\n\n&#39; Relationships\nUser ||--o{ Student : \&quot;is a\&quot;\nUser ||--o{ Teacher : \&quot;is a\&quot;\nUser ||--o{ Admin : \&quot;is a\&quot;\nUser ||--o{ Principal : \&quot;is a\&quot;\n\nTeacher ||--o{ SectionHead : \&quot;can be\&quot;\nStudent }o--|| Assessment : \&quot;submits\&quot;\nTeacher ||--o{ Assessment : \&quot;creates\&quot;\nStudent }o--|| Exam : \&quot;takes\&quot;\nTeacher ||--o{ Exam : \&quot;conducts\&quot;\nExam ||--o{ ExamResult : \&quot;generates\&quot;\nStudent ||--|| StudentRecord : \&quot;has\&quot;\nTimeTable ||--o{ Session : \&quot;contains\&quot;\nTeacher ||--o{ Session : \&quot;teaches\&quot;\nStudentRecord ||--o{ Assessment : \&quot;tracks\&quot;\nStudentRecord ||--o{ ExamResult : \&quot;includes\&quot;\nStudentRecord ||--o{ Report : \&quot;generates\&quot;\nUser ||--o{ Log : \&quot;creates\&quot;\n\n@enduml\n&quot;,&#xa;  &quot;format&quot;: &quot;svg&quot;&#xa;}" id="jHMxnC-GHMcb7yVaBvdP-1">
          <mxCell style="shape=image;noLabel=1;verticalAlign=top;aspect=fixed;imageAspect=0;image=data:image/svg+xml,PD94bWwgdmVyc2lvbj0iMS4wIiBlbmNvZGluZz0idXMtYXNjaWkiIHN0YW5kYWxvbmU9Im5vIj8+PHN2ZyB4bWxucz0iaHR0cDovL3d3dy53My5vcmcvMjAwMC9zdmciIHhtbG5zOnhsaW5rPSJodHRwOi8vd3d3LnczLm9yZy8xOTk5L3hsaW5rIiBjb250ZW50U3R5bGVUeXBlPSJ0ZXh0L2NzcyIgaGVpZ2h0PSI4MzVweCIgcHJlc2VydmVBc3BlY3RSYXRpbz0ibm9uZSIgc3R5bGU9IndpZHRoOjc4N3B4O2hlaWdodDo4MzVweDtiYWNrZ3JvdW5kOiNGRkZGRkY7IiB2ZXJzaW9uPSIxLjEiIHZpZXdCb3g9IjAgMCA3ODcgODM1IiB3aWR0aD0iNzg3cHgiIHpvb21BbmRQYW49Im1hZ25pZnkiPjxkZWZzLz48Zz48IS0tY2xhc3MgVXNlci0tPjxnIGlkPSJlbGVtX1VzZXIiPjxyZWN0IGNvZGVMaW5lPSI5IiBmaWxsPSIjRjFGMUYxIiBoZWlnaHQ9IjIxMi43OTY5IiBpZD0iVXNlciIgcng9IjIuNSIgcnk9IjIuNSIgc3R5bGU9InN0cm9rZTojMTgxODE4O3N0cm9rZS13aWR0aDowLjU7IiB3aWR0aD0iODkiIHg9IjM5Ny41IiB5PSI3Ii8+PHRleHQgZmlsbD0iIzAwMDAwMCIgZm9udC1mYW1pbHk9InNhbnMtc2VyaWYiIGZvbnQtc2l6ZT0iMTQiIGxlbmd0aEFkanVzdD0ic3BhY2luZyIgdGV4dExlbmd0aD0iMjgiIHg9IjQyOCIgeT0iMjUuMjM0NCI+VXNlcjwvdGV4dD48bGluZSBzdHlsZT0ic3Ryb2tlOiMxODE4MTg7c3Ryb2tlLXdpZHRoOjAuNTsiIHgxPSIzOTguNSIgeDI9IjQ4NS41IiB5MT0iMzEuOTg0NCIgeTI9IjMxLjk4NDQiLz48dGV4dCBmaWxsPSIjMDAwMDAwIiBmb250LWZhbWlseT0ic2Fucy1zZXJpZiIgZm9udC1zaXplPSIxNCIgZm9udC13ZWlnaHQ9ImJvbGQiIGxlbmd0aEFkanVzdD0ic3BhY2luZyIgdGV4dExlbmd0aD0iMzUiIHg9IjQwMy41IiB5PSI0OS4yMTg4Ij5QSyBpZDwvdGV4dD48dGV4dCBmaWxsPSIjMDAwMDAwIiBmb250LWZhbWlseT0ic2Fucy1zZXJpZiIgZm9udC1zaXplPSIxNCIgbGVuZ3RoQWRqdXN0PSJzcGFjaW5nIiB0ZXh0TGVuZ3RoPSI1NiIgeD0iNDAzLjUiIHk9IjY0LjIwMzEiPnNjaG9vbElkPC90ZXh0Pjx0ZXh0IGZpbGw9IiMwMDAwMDAiIGZvbnQtZmFtaWx5PSJzYW5zLXNlcmlmIiBmb250LXNpemU9IjE0IiBsZW5ndGhBZGp1c3Q9InNwYWNpbmciIHRleHRMZW5ndGg9IjU3IiB4PSI0MDMuNSIgeT0iNzkuMTg3NSI+dXNlcm5hbWU8L3RleHQ+PHRleHQgZmlsbD0iIzAwMDAwMCIgZm9udC1mYW1pbHk9InNhbnMtc2VyaWYiIGZvbnQtc2l6ZT0iMTQiIGxlbmd0aEFkanVzdD0ic3BhY2luZyIgdGV4dExlbmd0aD0iNTciIHg9IjQwMy41IiB5PSI5NC4xNzE5Ij5wYXNzd29yZDwvdGV4dD48dGV4dCBmaWxsPSIjMDAwMDAwIiBmb250LWZhbWlseT0ic2Fucy1zZXJpZiIgZm9udC1zaXplPSIxNCIgbGVuZ3RoQWRqdXN0PSJzcGFjaW5nIiB0ZXh0TGVuZ3RoPSI2NCIgeD0iNDAzLjUiIHk9IjEwOS4xNTYzIj5maXJzdE5hbWU8L3RleHQ+PHRleHQgZmlsbD0iIzAwMDAwMCIgZm9udC1mYW1pbHk9InNhbnMtc2VyaWYiIGZvbnQtc2l6ZT0iMTQiIGxlbmd0aEFkanVzdD0ic3BhY2luZyIgdGV4dExlbmd0aD0iNTciIHg9IjQwMy41IiB5PSIxMjQuMTQwNiI+bGFzdE5hbWU8L3RleHQ+PHRleHQgZmlsbD0iIzAwMDAwMCIgZm9udC1mYW1pbHk9InNhbnMtc2VyaWYiIGZvbnQtc2l6ZT0iMTQiIGxlbmd0aEFkanVzdD0ic3BhY2luZyIgdGV4dExlbmd0aD0iMzYiIHg9IjQwMy41IiB5PSIxMzkuMTI1Ij5lbWFpbDwvdGV4dD48dGV4dCBmaWxsPSIjMDAwMDAwIiBmb250LWZhbWlseT0ic2Fucy1zZXJpZiIgZm9udC1zaXplPSIxNCIgbGVuZ3RoQWRqdXN0PSJzcGFjaW5nIiB0ZXh0TGVuZ3RoPSIzNSIgeD0iNDAzLjUiIHk9IjE1NC4xMDk0Ij5waG9uZTwvdGV4dD48dGV4dCBmaWxsPSIjMDAwMDAwIiBmb250LWZhbWlseT0ic2Fucy1zZXJpZiIgZm9udC1zaXplPSIxNCIgbGVuZ3RoQWRqdXN0PSJzcGFjaW5nIiB0ZXh0TGVuZ3RoPSI0OSIgeD0iNDAzLjUiIHk9IjE2OS4wOTM4Ij5hZGRyZXNzPC90ZXh0Pjx0ZXh0IGZpbGw9IiMwMDAwMDAiIGZvbnQtZmFtaWx5PSJzYW5zLXNlcmlmIiBmb250LXNpemU9IjE0IiBsZW5ndGhBZGp1c3Q9InNwYWNpbmciIHRleHRMZW5ndGg9IjYzIiB4PSI0MDMuNSIgeT0iMTg0LjA3ODEiPmxhc3RMb2dpbjwvdGV4dD48dGV4dCBmaWxsPSIjMDAwMDAwIiBmb250LWZhbWlseT0ic2Fucy1zZXJpZiIgZm9udC1zaXplPSIxNCIgbGVuZ3RoQWRqdXN0PSJzcGFjaW5nIiB0ZXh0TGVuZ3RoPSI1NiIgeD0iNDAzLjUiIHk9IjE5OS4wNjI1Ij5pc0FjdGl2ZTwvdGV4dD48dGV4dCBmaWxsPSIjMDAwMDAwIiBmb250LWZhbWlseT0ic2Fucy1zZXJpZiIgZm9udC1zaXplPSIxNCIgbGVuZ3RoQWRqdXN0PSJzcGFjaW5nIiB0ZXh0TGVuZ3RoPSI3NyIgeD0iNDAzLjUiIHk9IjIxNC4wNDY5Ij5maW5nZXJwcmludDwvdGV4dD48L2c+PCEtLWNsYXNzIFN0dWRlbnQtLT48ZyBpZD0iZWxlbV9TdHVkZW50Ij48cmVjdCBjb2RlTGluZT0iMjQiIGZpbGw9IiNGMUYxRjEiIGhlaWdodD0iMTUyLjg1OTQiIGlkPSJTdHVkZW50IiByeD0iMi41IiByeT0iMi41IiBzdHlsZT0ic3Ryb2tlOiMxODE4MTg7c3Ryb2tlLXdpZHRoOjAuNTsiIHdpZHRoPSIxMTEiIHg9IjUxNS41IiB5PSIyODAiLz48dGV4dCBmaWxsPSIjMDAwMDAwIiBmb250LWZhbWlseT0ic2Fucy1zZXJpZiIgZm9udC1zaXplPSIxNCIgbGVuZ3RoQWRqdXN0PSJzcGFjaW5nIiB0ZXh0TGVuZ3RoPSI0OSIgeD0iNTQ2LjUiIHk9IjI5OC4yMzQ0Ij5TdHVkZW50PC90ZXh0PjxsaW5lIHN0eWxlPSJzdHJva2U6IzE4MTgxODtzdHJva2Utd2lkdGg6MC41OyIgeDE9IjUxNi41IiB4Mj0iNjI1LjUiIHkxPSIzMDQuOTg0NCIgeTI9IjMwNC45ODQ0Ii8+PHRleHQgZmlsbD0iIzAwMDAwMCIgZm9udC1mYW1pbHk9InNhbnMtc2VyaWYiIGZvbnQtc2l6ZT0iMTQiIGZvbnQtd2VpZ2h0PSJib2xkIiBsZW5ndGhBZGp1c3Q9InNwYWNpbmciIHRleHRMZW5ndGg9Ijg0IiB4PSI1MjEuNSIgeT0iMzIyLjIxODgiPlBLIHN0dWRlbnRJZDwvdGV4dD48dGV4dCBmaWxsPSIjMDAwMDAwIiBmb250LWZhbWlseT0ic2Fucy1zZXJpZiIgZm9udC1zaXplPSIxNCIgbGVuZ3RoQWRqdXN0PSJzcGFjaW5nIiB0ZXh0TGVuZ3RoPSI2MyIgeD0iNTIxLjUiIHk9IjMzNy4yMDMxIj5GSyB1c2VySWQ8L3RleHQ+PHRleHQgZmlsbD0iIzAwMDAwMCIgZm9udC1mYW1pbHk9InNhbnMtc2VyaWYiIGZvbnQtc2l6ZT0iMTQiIGxlbmd0aEFkanVzdD0ic3BhY2luZyIgdGV4dExlbmd0aD0iMzUiIHg9IjUyMS41IiB5PSIzNTIuMTg3NSI+Z3JhZGU8L3RleHQ+PHRleHQgZmlsbD0iIzAwMDAwMCIgZm9udC1mYW1pbHk9InNhbnMtc2VyaWYiIGZvbnQtc2l6ZT0iMTQiIGxlbmd0aEFkanVzdD0ic3BhY2luZyIgdGV4dExlbmd0aD0iNDkiIHg9IjUyMS41IiB5PSIzNjcuMTcxOSI+c2VjdGlvbjwvdGV4dD48dGV4dCBmaWxsPSIjMDAwMDAwIiBmb250LWZhbWlseT0ic2Fucy1zZXJpZiIgZm9udC1zaXplPSIxNCIgbGVuZ3RoQWRqdXN0PSJzcGFjaW5nIiB0ZXh0TGVuZ3RoPSI5OSIgeD0iNTIxLjUiIHk9IjM4Mi4xNTYzIj5lbnJvbGxtZW50RGF0ZTwvdGV4dD48dGV4dCBmaWxsPSIjMDAwMDAwIiBmb250LWZhbWlseT0ic2Fucy1zZXJpZiIgZm9udC1zaXplPSIxNCIgbGVuZ3RoQWRqdXN0PSJzcGFjaW5nIiB0ZXh0TGVuZ3RoPSI3MSIgeD0iNTIxLjUiIHk9IjM5Ny4xNDA2Ij5wYXJlbnROYW1lPC90ZXh0Pjx0ZXh0IGZpbGw9IiMwMDAwMDAiIGZvbnQtZmFtaWx5PSJzYW5zLXNlcmlmIiBmb250LXNpemU9IjE0IiBsZW5ndGhBZGp1c3Q9InNwYWNpbmciIHRleHRMZW5ndGg9IjkxIiB4PSI1MjEuNSIgeT0iNDEyLjEyNSI+cGFyZW50Q29udGFjdDwvdGV4dD48dGV4dCBmaWxsPSIjMDAwMDAwIiBmb250LWZhbWlseT0ic2Fucy1zZXJpZiIgZm9udC1zaXplPSIxNCIgbGVuZ3RoQWRqdXN0PSJzcGFjaW5nIiB0ZXh0TGVuZ3RoPSIyMSIgeD0iNTIxLjUiIHk9IjQyNy4xMDk0Ij5ncGE8L3RleHQ+PC9nPjwhLS1jbGFzcyBUZWFjaGVyLS0+PGcgaWQ9ImVsZW1fVGVhY2hlciI+PHJlY3QgY29kZUxpbmU9IjM1IiBmaWxsPSIjRjFGMUYxIiBoZWlnaHQ9IjEyMi44OTA2IiBpZD0iVGVhY2hlciIgcng9IjIuNSIgcnk9IjIuNSIgc3R5bGU9InN0cm9rZTojMTgxODE4O3N0cm9rZS13aWR0aDowLjU7IiB3aWR0aD0iMTAzIiB4PSIxNDEuNSIgeT0iMjk1Ii8+PHRleHQgZmlsbD0iIzAwMDAwMCIgZm9udC1mYW1pbHk9InNhbnMtc2VyaWYiIGZvbnQtc2l6ZT0iMTQiIGxlbmd0aEFkanVzdD0ic3BhY2luZyIgdGV4dExlbmd0aD0iNDkiIHg9IjE2OC41IiB5PSIzMTMuMjM0NCI+VGVhY2hlcjwvdGV4dD48bGluZSBzdHlsZT0ic3Ryb2tlOiMxODE4MTg7c3Ryb2tlLXdpZHRoOjAuNTsiIHgxPSIxNDIuNSIgeDI9IjI0My41IiB5MT0iMzE5Ljk4NDQiIHkyPSIzMTkuOTg0NCIvPjx0ZXh0IGZpbGw9IiMwMDAwMDAiIGZvbnQtZmFtaWx5PSJzYW5zLXNlcmlmIiBmb250LXNpemU9IjE0IiBmb250LXdlaWdodD0iYm9sZCIgbGVuZ3RoQWRqdXN0PSJzcGFjaW5nIiB0ZXh0TGVuZ3RoPSI4NCIgeD0iMTQ3LjUiIHk9IjMzNy4yMTg4Ij5QSyB0ZWFjaGVySWQ8L3RleHQ+PHRleHQgZmlsbD0iIzAwMDAwMCIgZm9udC1mYW1pbHk9InNhbnMtc2VyaWYiIGZvbnQtc2l6ZT0iMTQiIGxlbmd0aEFkanVzdD0ic3BhY2luZyIgdGV4dExlbmd0aD0iNjMiIHg9IjE0Ny41IiB5PSIzNTIuMjAzMSI+RksgdXNlcklkPC90ZXh0Pjx0ZXh0IGZpbGw9IiMwMDAwMDAiIGZvbnQtZmFtaWx5PSJzYW5zLXNlcmlmIiBmb250LXNpemU9IjE0IiBsZW5ndGhBZGp1c3Q9InNwYWNpbmciIHRleHRMZW5ndGg9IjcxIiB4PSIxNDcuNSIgeT0iMzY3LjE4NzUiPmRlcGFydG1lbnQ8L3RleHQ+PHRleHQgZmlsbD0iIzAwMDAwMCIgZm9udC1mYW1pbHk9InNhbnMtc2VyaWYiIGZvbnQtc2l6ZT0iMTQiIGxlbmd0aEFkanVzdD0ic3BhY2luZyIgdGV4dExlbmd0aD0iNTYiIHg9IjE0Ny41IiB5PSIzODIuMTcxOSI+c3ViamVjdHM8L3RleHQ+PHRleHQgZmlsbD0iIzAwMDAwMCIgZm9udC1mYW1pbHk9InNhbnMtc2VyaWYiIGZvbnQtc2l6ZT0iMTQiIGxlbmd0aEFkanVzdD0ic3BhY2luZyIgdGV4dExlbmd0aD0iNzciIHg9IjE0Ny41IiB5PSIzOTcuMTU2MyI+am9pbmluZ0RhdGU8L3RleHQ+PHRleHQgZmlsbD0iIzAwMDAwMCIgZm9udC1mYW1pbHk9InNhbnMtc2VyaWYiIGZvbnQtc2l6ZT0iMTQiIGxlbmd0aEFkanVzdD0ic3BhY2luZyIgdGV4dExlbmd0aD0iOTEiIHg9IjE0Ny41IiB5PSI0MTIuMTQwNiI+cXVhbGlmaWNhdGlvbjwvdGV4dD48L2c+PCEtLWNsYXNzIFNlY3Rpb25IZWFkLS0+PGcgaWQ9ImVsZW1fU2VjdGlvbkhlYWQiPjxyZWN0IGNvZGVMaW5lPSI0NCIgZmlsbD0iI0YxRjFGMSIgaGVpZ2h0PSI3Ny45Mzc1IiBpZD0iU2VjdGlvbkhlYWQiIHJ4PSIyLjUiIHJ5PSIyLjUiIHN0eWxlPSJzdHJva2U6IzE4MTgxODtzdHJva2Utd2lkdGg6MC41OyIgd2lkdGg9Ijk2IiB4PSIxNDUiIHk9IjUyMyIvPjx0ZXh0IGZpbGw9IiMwMDAwMDAiIGZvbnQtZmFtaWx5PSJzYW5zLXNlcmlmIiBmb250LXNpemU9IjE0IiBsZW5ndGhBZGp1c3Q9InNwYWNpbmciIHRleHRMZW5ndGg9Ijc3IiB4PSIxNTQuNSIgeT0iNTQxLjIzNDQiPlNlY3Rpb25IZWFkPC90ZXh0PjxsaW5lIHN0eWxlPSJzdHJva2U6IzE4MTgxODtzdHJva2Utd2lkdGg6MC41OyIgeDE9IjE0NiIgeDI9IjI0MCIgeTE9IjU0Ny45ODQ0IiB5Mj0iNTQ3Ljk4NDQiLz48dGV4dCBmaWxsPSIjMDAwMDAwIiBmb250LWZhbWlseT0ic2Fucy1zZXJpZiIgZm9udC1zaXplPSIxNCIgZm9udC13ZWlnaHQ9ImJvbGQiIGxlbmd0aEFkanVzdD0ic3BhY2luZyIgdGV4dExlbmd0aD0iODQiIHg9IjE1MSIgeT0iNTY1LjIxODgiPlBLIHNlY3Rpb25JZDwvdGV4dD48dGV4dCBmaWxsPSIjMDAwMDAwIiBmb250LWZhbWlseT0ic2Fucy1zZXJpZiIgZm9udC1zaXplPSIxNCIgbGVuZ3RoQWRqdXN0PSJzcGFjaW5nIiB0ZXh0TGVuZ3RoPSI4NCIgeD0iMTUxIiB5PSI1ODAuMjAzMSI+RksgdGVhY2hlcklkPC90ZXh0Pjx0ZXh0IGZpbGw9IiMwMDAwMDAiIGZvbnQtZmFtaWx5PSJzYW5zLXNlcmlmIiBmb250LXNpemU9IjE0IiBsZW5ndGhBZGp1c3Q9InNwYWNpbmciIHRleHRMZW5ndGg9IjcxIiB4PSIxNTEiIHk9IjU5NS4xODc1Ij5kZXBhcnRtZW50PC90ZXh0PjwvZz48IS0tY2xhc3MgUHJpbmNpcGFsLS0+PGcgaWQ9ImVsZW1fUHJpbmNpcGFsIj48cmVjdCBjb2RlTGluZT0iNTAiIGZpbGw9IiNGMUYxRjEiIGhlaWdodD0iNzcuOTM3NSIgaWQ9IlByaW5jaXBhbCIgcng9IjIuNSIgcnk9IjIuNSIgc3R5bGU9InN0cm9rZTojMTgxODE4O3N0cm9rZS13aWR0aDowLjU7IiB3aWR0aD0iMTE4IiB4PSI2NjIiIHk9IjMxNy41Ii8+PHRleHQgZmlsbD0iIzAwMDAwMCIgZm9udC1mYW1pbHk9InNhbnMtc2VyaWYiIGZvbnQtc2l6ZT0iMTQiIGxlbmd0aEFkanVzdD0ic3BhY2luZyIgdGV4dExlbmd0aD0iNjMiIHg9IjY4OS41IiB5PSIzMzUuNzM0NCI+UHJpbmNpcGFsPC90ZXh0PjxsaW5lIHN0eWxlPSJzdHJva2U6IzE4MTgxODtzdHJva2Utd2lkdGg6MC41OyIgeDE9IjY2MyIgeDI9Ijc3OSIgeTE9IjM0Mi40ODQ0IiB5Mj0iMzQyLjQ4NDQiLz48dGV4dCBmaWxsPSIjMDAwMDAwIiBmb250LWZhbWlseT0ic2Fucy1zZXJpZiIgZm9udC1zaXplPSIxNCIgZm9udC13ZWlnaHQ9ImJvbGQiIGxlbmd0aEFkanVzdD0ic3BhY2luZyIgdGV4dExlbmd0aD0iNzciIHg9IjY2OCIgeT0iMzU5LjcxODgiPlBLIHNjaG9vbElkPC90ZXh0Pjx0ZXh0IGZpbGw9IiMwMDAwMDAiIGZvbnQtZmFtaWx5PSJzYW5zLXNlcmlmIiBmb250LXNpemU9IjE0IiBsZW5ndGhBZGp1c3Q9InNwYWNpbmciIHRleHRMZW5ndGg9IjYzIiB4PSI2NjgiIHk9IjM3NC43MDMxIj5GSyB1c2VySWQ8L3RleHQ+PHRleHQgZmlsbD0iIzAwMDAwMCIgZm9udC1mYW1pbHk9InNhbnMtc2VyaWYiIGZvbnQtc2l6ZT0iMTQiIGxlbmd0aEFkanVzdD0ic3BhY2luZyIgdGV4dExlbmd0aD0iMTA2IiB4PSI2NjgiIHk9IjM4OS42ODc1Ij5hcHBvaW50bWVudERhdGU8L3RleHQ+PC9nPjwhLS1jbGFzcyBBZG1pbi0tPjxnIGlkPSJlbGVtX0FkbWluIj48cmVjdCBjb2RlTGluZT0iNTYiIGZpbGw9IiNGMUYxRjEiIGhlaWdodD0iNzcuOTM3NSIgaWQ9IkFkbWluIiByeD0iMi41IiByeT0iMi41IiBzdHlsZT0ic3Ryb2tlOiMxODE4MTg7c3Ryb2tlLXdpZHRoOjAuNTsiIHdpZHRoPSI4OSIgeD0iMjc5LjUiIHk9IjMxNy41Ii8+PHRleHQgZmlsbD0iIzAwMDAwMCIgZm9udC1mYW1pbHk9InNhbnMtc2VyaWYiIGZvbnQtc2l6ZT0iMTQiIGxlbmd0aEFkanVzdD0ic3BhY2luZyIgdGV4dExlbmd0aD0iMzYiIHg9IjMwNiIgeT0iMzM1LjczNDQiPkFkbWluPC90ZXh0PjxsaW5lIHN0eWxlPSJzdHJva2U6IzE4MTgxODtzdHJva2Utd2lkdGg6MC41OyIgeDE9IjI4MC41IiB4Mj0iMzY3LjUiIHkxPSIzNDIuNDg0NCIgeTI9IjM0Mi40ODQ0Ii8+PHRleHQgZmlsbD0iIzAwMDAwMCIgZm9udC1mYW1pbHk9InNhbnMtc2VyaWYiIGZvbnQtc2l6ZT0iMTQiIGZvbnQtd2VpZ2h0PSJib2xkIiBsZW5ndGhBZGp1c3Q9InNwYWNpbmciIHRleHRMZW5ndGg9IjcxIiB4PSIyODUuNSIgeT0iMzU5LjcxODgiPlBLIGFkbWluSWQ8L3RleHQ+PHRleHQgZmlsbD0iIzAwMDAwMCIgZm9udC1mYW1pbHk9InNhbnMtc2VyaWYiIGZvbnQtc2l6ZT0iMTQiIGxlbmd0aEFkanVzdD0ic3BhY2luZyIgdGV4dExlbmd0aD0iNjMiIHg9IjI4NS41IiB5PSIzNzQuNzAzMSI+RksgdXNlcklkPC90ZXh0Pjx0ZXh0IGZpbGw9IiMwMDAwMDAiIGZvbnQtZmFtaWx5PSJzYW5zLXNlcmlmIiBmb250LXNpemU9IjE0IiBsZW5ndGhBZGp1c3Q9InNwYWNpbmciIHRleHRMZW5ndGg9Ijc3IiB4PSIyODUuNSIgeT0iMzg5LjY4NzUiPmFjY2Vzc0xldmVsPC90ZXh0PjwvZz48IS0tY2xhc3MgQXNzZXNzbWVudC0tPjxnIGlkPSJlbGVtX0Fzc2Vzc21lbnQiPjxyZWN0IGNvZGVMaW5lPSI2MiIgZmlsbD0iI0YxRjFGMSIgaGVpZ2h0PSIxMzcuODc1IiBpZD0iQXNzZXNzbWVudCIgcng9IjIuNSIgcnk9IjIuNSIgc3R5bGU9InN0cm9rZTojMTgxODE4O3N0cm9rZS13aWR0aDowLjU7IiB3aWR0aD0iMTI1IiB4PSIzMDYuNSIgeT0iNjkxIi8+PHRleHQgZmlsbD0iIzAwMDAwMCIgZm9udC1mYW1pbHk9InNhbnMtc2VyaWYiIGZvbnQtc2l6ZT0iMTQiIGxlbmd0aEFkanVzdD0ic3BhY2luZyIgdGV4dExlbmd0aD0iNzEiIHg9IjMzMy41IiB5PSI3MDkuMjM0NCI+QXNzZXNzbWVudDwvdGV4dD48bGluZSBzdHlsZT0ic3Ryb2tlOiMxODE4MTg7c3Ryb2tlLXdpZHRoOjAuNTsiIHgxPSIzMDcuNSIgeDI9IjQzMC41IiB5MT0iNzE1Ljk4NDQiIHkyPSI3MTUuOTg0NCIvPjx0ZXh0IGZpbGw9IiMwMDAwMDAiIGZvbnQtZmFtaWx5PSJzYW5zLXNlcmlmIiBmb250LXNpemU9IjE0IiBmb250LXdlaWdodD0iYm9sZCIgbGVuZ3RoQWRqdXN0PSJzcGFjaW5nIiB0ZXh0TGVuZ3RoPSIzNSIgeD0iMzEyLjUiIHk9IjczMy4yMTg4Ij5QSyBpZDwvdGV4dD48dGV4dCBmaWxsPSIjMDAwMDAwIiBmb250LWZhbWlseT0ic2Fucy1zZXJpZiIgZm9udC1zaXplPSIxNCIgbGVuZ3RoQWRqdXN0PSJzcGFjaW5nIiB0ZXh0TGVuZ3RoPSIxMTMiIHg9IjMxMi41IiB5PSI3NDguMjAzMSI+YXNzZXNzbWVudF90aXRsZTwvdGV4dD48dGV4dCBmaWxsPSIjMDAwMDAwIiBmb250LWZhbWlseT0ic2Fucy1zZXJpZiIgZm9udC1zaXplPSIxNCIgbGVuZ3RoQWRqdXN0PSJzcGFjaW5nIiB0ZXh0TGVuZ3RoPSI3NyIgeD0iMzEyLjUiIHk9Ijc2My4xODc1Ij5kZXNjcmlwdGlvbjwvdGV4dD48dGV4dCBmaWxsPSIjMDAwMDAwIiBmb250LWZhbWlseT0ic2Fucy1zZXJpZiIgZm9udC1zaXplPSIxNCIgbGVuZ3RoQWRqdXN0PSJzcGFjaW5nIiB0ZXh0TGVuZ3RoPSI0OSIgeD0iMzEyLjUiIHk9Ijc3OC4xNzE5Ij5kdWVEYXRlPC90ZXh0Pjx0ZXh0IGZpbGw9IiMwMDAwMDAiIGZvbnQtZmFtaWx5PSJzYW5zLXNlcmlmIiBmb250LXNpemU9IjE0IiBsZW5ndGhBZGp1c3Q9InNwYWNpbmciIHRleHRMZW5ndGg9IjcwIiB4PSIzMTIuNSIgeT0iNzkzLjE1NjMiPnRvdGFsTWFya3M8L3RleHQ+PHRleHQgZmlsbD0iIzAwMDAwMCIgZm9udC1mYW1pbHk9InNhbnMtc2VyaWYiIGZvbnQtc2l6ZT0iMTQiIGxlbmd0aEFkanVzdD0ic3BhY2luZyIgdGV4dExlbmd0aD0iNDkiIHg9IjMxMi41IiB5PSI4MDguMTQwNiI+c3ViamVjdDwvdGV4dD48dGV4dCBmaWxsPSIjMDAwMDAwIiBmb250LWZhbWlseT0ic2Fucy1zZXJpZiIgZm9udC1zaXplPSIxNCIgbGVuZ3RoQWRqdXN0PSJzcGFjaW5nIiB0ZXh0TGVuZ3RoPSI3MCIgeD0iMzEyLjUiIHk9IjgyMy4xMjUiPmFzc2lnbmVkVG88L3RleHQ+PC9nPjwhLS1jbGFzcyBFeGFtLS0+PGcgaWQ9ImVsZW1fRXhhbSI+PHJlY3QgY29kZUxpbmU9IjcyIiBmaWxsPSIjRjFGMUYxIiBoZWlnaHQ9IjEyMi44OTA2IiBpZD0iRXhhbSIgcng9IjIuNSIgcnk9IjIuNSIgc3R5bGU9InN0cm9rZTojMTgxODE4O3N0cm9rZS13aWR0aDowLjU7IiB3aWR0aD0iODIiIHg9IjM0NyIgeT0iNTAwLjUiLz48dGV4dCBmaWxsPSIjMDAwMDAwIiBmb250LWZhbWlseT0ic2Fucy1zZXJpZiIgZm9udC1zaXplPSIxNCIgbGVuZ3RoQWRqdXN0PSJzcGFjaW5nIiB0ZXh0TGVuZ3RoPSIyOSIgeD0iMzczLjUiIHk9IjUxOC43MzQ0Ij5FeGFtPC90ZXh0PjxsaW5lIHN0eWxlPSJzdHJva2U6IzE4MTgxODtzdHJva2Utd2lkdGg6MC41OyIgeDE9IjM0OCIgeDI9IjQyOCIgeTE9IjUyNS40ODQ0IiB5Mj0iNTI1LjQ4NDQiLz48dGV4dCBmaWxsPSIjMDAwMDAwIiBmb250LWZhbWlseT0ic2Fucy1zZXJpZiIgZm9udC1zaXplPSIxNCIgZm9udC13ZWlnaHQ9ImJvbGQiIGxlbmd0aEFkanVzdD0ic3BhY2luZyIgdGV4dExlbmd0aD0iMzUiIHg9IjM1MyIgeT0iNTQyLjcxODgiPlBLIGlkPC90ZXh0Pjx0ZXh0IGZpbGw9IiMwMDAwMDAiIGZvbnQtZmFtaWx5PSJzYW5zLXNlcmlmIiBmb250LXNpemU9IjE0IiBsZW5ndGhBZGp1c3Q9InNwYWNpbmciIHRleHRMZW5ndGg9IjI5IiB4PSIzNTMiIHk9IjU1Ny43MDMxIj5uYW1lPC90ZXh0Pjx0ZXh0IGZpbGw9IiMwMDAwMDAiIGZvbnQtZmFtaWx5PSJzYW5zLXNlcmlmIiBmb250LXNpemU9IjE0IiBsZW5ndGhBZGp1c3Q9InNwYWNpbmciIHRleHRMZW5ndGg9IjQ5IiB4PSIzNTMiIHk9IjU3Mi42ODc1Ij5zdWJqZWN0PC90ZXh0Pjx0ZXh0IGZpbGw9IiMwMDAwMDAiIGZvbnQtZmFtaWx5PSJzYW5zLXNlcmlmIiBmb250LXNpemU9IjE0IiBsZW5ndGhBZGp1c3Q9InNwYWNpbmciIHRleHRMZW5ndGg9IjI4IiB4PSIzNTMiIHk9IjU4Ny42NzE5Ij5kYXRlPC90ZXh0Pjx0ZXh0IGZpbGw9IiMwMDAwMDAiIGZvbnQtZmFtaWx5PSJzYW5zLXNlcmlmIiBmb250LXNpemU9IjE0IiBsZW5ndGhBZGp1c3Q9InNwYWNpbmciIHRleHRMZW5ndGg9IjU2IiB4PSIzNTMiIHk9IjYwMi42NTYzIj5kdXJhdGlvbjwvdGV4dD48dGV4dCBmaWxsPSIjMDAwMDAwIiBmb250LWZhbWlseT0ic2Fucy1zZXJpZiIgZm9udC1zaXplPSIxNCIgbGVuZ3RoQWRqdXN0PSJzcGFjaW5nIiB0ZXh0TGVuZ3RoPSI3MCIgeD0iMzUzIiB5PSI2MTcuNjQwNiI+dG90YWxNYXJrczwvdGV4dD48L2c+PCEtLWNsYXNzIEV4YW1SZXN1bHQtLT48ZyBpZD0iZWxlbV9FeGFtUmVzdWx0Ij48cmVjdCBjb2RlTGluZT0iODEiIGZpbGw9IiNGMUYxRjEiIGhlaWdodD0iMTM3Ljg3NSIgaWQ9IkV4YW1SZXN1bHQiIHJ4PSIyLjUiIHJ5PSIyLjUiIHN0eWxlPSJzdHJva2U6IzE4MTgxODtzdHJva2Utd2lkdGg6MC41OyIgd2lkdGg9Ijk2IiB4PSI0NjciIHk9IjY5MSIvPjx0ZXh0IGZpbGw9IiMwMDAwMDAiIGZvbnQtZmFtaWx5PSJzYW5zLXNlcmlmIiBmb250LXNpemU9IjE0IiBsZW5ndGhBZGp1c3Q9InNwYWNpbmciIHRleHRMZW5ndGg9IjcxIiB4PSI0NzkuNSIgeT0iNzA5LjIzNDQiPkV4YW1SZXN1bHQ8L3RleHQ+PGxpbmUgc3R5bGU9InN0cm9rZTojMTgxODE4O3N0cm9rZS13aWR0aDowLjU7IiB4MT0iNDY4IiB4Mj0iNTYyIiB5MT0iNzE1Ljk4NDQiIHkyPSI3MTUuOTg0NCIvPjx0ZXh0IGZpbGw9IiMwMDAwMDAiIGZvbnQtZmFtaWx5PSJzYW5zLXNlcmlmIiBmb250LXNpemU9IjE0IiBmb250LXdlaWdodD0iYm9sZCIgbGVuZ3RoQWRqdXN0PSJzcGFjaW5nIiB0ZXh0TGVuZ3RoPSIzNSIgeD0iNDczIiB5PSI3MzMuMjE4OCI+UEsgaWQ8L3RleHQ+PHRleHQgZmlsbD0iIzAwMDAwMCIgZm9udC1mYW1pbHk9InNhbnMtc2VyaWYiIGZvbnQtc2l6ZT0iMTQiIGxlbmd0aEFkanVzdD0ic3BhY2luZyIgdGV4dExlbmd0aD0iNjQiIHg9IjQ3MyIgeT0iNzQ4LjIwMzEiPkZLIGV4YW1JZDwvdGV4dD48dGV4dCBmaWxsPSIjMDAwMDAwIiBmb250LWZhbWlseT0ic2Fucy1zZXJpZiIgZm9udC1zaXplPSIxNCIgbGVuZ3RoQWRqdXN0PSJzcGFjaW5nIiB0ZXh0TGVuZ3RoPSI4NCIgeD0iNDczIiB5PSI3NjMuMTg3NSI+Rksgc3R1ZGVudElkPC90ZXh0Pjx0ZXh0IGZpbGw9IiMwMDAwMDAiIGZvbnQtZmFtaWx5PSJzYW5zLXNlcmlmIiBmb250LXNpemU9IjE0IiBsZW5ndGhBZGp1c3Q9InNwYWNpbmciIHRleHRMZW5ndGg9IjM2IiB4PSI0NzMiIHk9Ijc3OC4xNzE5Ij5tYXJrczwvdGV4dD48dGV4dCBmaWxsPSIjMDAwMDAwIiBmb250LWZhbWlseT0ic2Fucy1zZXJpZiIgZm9udC1zaXplPSIxNCIgbGVuZ3RoQWRqdXN0PSJzcGFjaW5nIiB0ZXh0TGVuZ3RoPSIzNSIgeD0iNDczIiB5PSI3OTMuMTU2MyI+Z3JhZGU8L3RleHQ+PHRleHQgZmlsbD0iIzAwMDAwMCIgZm9udC1mYW1pbHk9InNhbnMtc2VyaWYiIGZvbnQtc2l6ZT0iMTQiIGxlbmd0aEFkanVzdD0ic3BhY2luZyIgdGV4dExlbmd0aD0iNTAiIHg9IjQ3MyIgeT0iODA4LjE0MDYiPnJlbWFya3M8L3RleHQ+PHRleHQgZmlsbD0iIzAwMDAwMCIgZm9udC1mYW1pbHk9InNhbnMtc2VyaWYiIGZvbnQtc2l6ZT0iMTQiIGxlbmd0aEFkanVzdD0ic3BhY2luZyIgdGV4dExlbmd0aD0iMjgiIHg9IjQ3MyIgeT0iODIzLjEyNSI+ZGF0ZTwvdGV4dD48L2c+PCEtLWNsYXNzIFRpbWVUYWJsZS0tPjxnIGlkPSJlbGVtX1RpbWVUYWJsZSI+PHJlY3QgY29kZUxpbmU9IjkxIiBmaWxsPSIjRjFGMUYxIiBoZWlnaHQ9IjEyMi44OTA2IiBpZD0iVGltZVRhYmxlIiByeD0iMi41IiByeT0iMi41IiBzdHlsZT0ic3Ryb2tlOiMxODE4MTg7c3Ryb2tlLXdpZHRoOjAuNTsiIHdpZHRoPSI3NiIgeD0iMjQiIHk9IjI5NSIvPjx0ZXh0IGZpbGw9IiMwMDAwMDAiIGZvbnQtZmFtaWx5PSJzYW5zLXNlcmlmIiBmb250LXNpemU9IjE0IiBsZW5ndGhBZGp1c3Q9InNwYWNpbmciIHRleHRMZW5ndGg9IjY0IiB4PSIzMCIgeT0iMzEzLjIzNDQiPlRpbWVUYWJsZTwvdGV4dD48bGluZSBzdHlsZT0ic3Ryb2tlOiMxODE4MTg7c3Ryb2tlLXdpZHRoOjAuNTsiIHgxPSIyNSIgeDI9Ijk5IiB5MT0iMzE5Ljk4NDQiIHkyPSIzMTkuOTg0NCIvPjx0ZXh0IGZpbGw9IiMwMDAwMDAiIGZvbnQtZmFtaWx5PSJzYW5zLXNlcmlmIiBmb250LXNpemU9IjE0IiBmb250LXdlaWdodD0iYm9sZCIgbGVuZ3RoQWRqdXN0PSJzcGFjaW5nIiB0ZXh0TGVuZ3RoPSIzNSIgeD0iMzAiIHk9IjMzNy4yMTg4Ij5QSyBpZDwvdGV4dD48dGV4dCBmaWxsPSIjMDAwMDAwIiBmb250LWZhbWlseT0ic2Fucy1zZXJpZiIgZm9udC1zaXplPSIxNCIgbGVuZ3RoQWRqdXN0PSJzcGFjaW5nIiB0ZXh0TGVuZ3RoPSIzNSIgeD0iMzAiIHk9IjM1Mi4yMDMxIj5ncmFkZTwvdGV4dD48dGV4dCBmaWxsPSIjMDAwMDAwIiBmb250LWZhbWlseT0ic2Fucy1zZXJpZiIgZm9udC1zaXplPSIxNCIgbGVuZ3RoQWRqdXN0PSJzcGFjaW5nIiB0ZXh0TGVuZ3RoPSI0OSIgeD0iMzAiIHk9IjM2Ny4xODc1Ij5zZWN0aW9uPC90ZXh0Pjx0ZXh0IGZpbGw9IiMwMDAwMDAiIGZvbnQtZmFtaWx5PSJzYW5zLXNlcmlmIiBmb250LXNpemU9IjE0IiBsZW5ndGhBZGp1c3Q9InNwYWNpbmciIHRleHRMZW5ndGg9IjU2IiB4PSIzMCIgeT0iMzgyLjE3MTkiPnNjaGVkdWxlPC90ZXh0Pjx0ZXh0IGZpbGw9IiMwMDAwMDAiIGZvbnQtZmFtaWx5PSJzYW5zLXNlcmlmIiBmb250LXNpemU9IjE0IiBsZW5ndGhBZGp1c3Q9InNwYWNpbmciIHRleHRMZW5ndGg9IjY0IiB4PSIzMCIgeT0iMzk3LjE1NjMiPnZhbGlkRnJvbTwvdGV4dD48dGV4dCBmaWxsPSIjMDAwMDAwIiBmb250LWZhbWlseT0ic2Fucy1zZXJpZiIgZm9udC1zaXplPSIxNCIgbGVuZ3RoQWRqdXN0PSJzcGFjaW5nIiB0ZXh0TGVuZ3RoPSI0OSIgeD0iMzAiIHk9IjQxMi4xNDA2Ij52YWxpZFRvPC90ZXh0PjwvZz48IS0tY2xhc3MgU2Vzc2lvbi0tPjxnIGlkPSJlbGVtX1Nlc3Npb24iPjxyZWN0IGNvZGVMaW5lPSIxMDAiIGZpbGw9IiNGMUYxRjEiIGhlaWdodD0iMTIyLjg5MDYiIGlkPSJTZXNzaW9uIiByeD0iMi41IiByeT0iMi41IiBzdHlsZT0ic3Ryb2tlOiMxODE4MTg7c3Ryb2tlLXdpZHRoOjAuNTsiIHdpZHRoPSI5NiIgeD0iMTQiIHk9IjUwMC41Ii8+PHRleHQgZmlsbD0iIzAwMDAwMCIgZm9udC1mYW1pbHk9InNhbnMtc2VyaWYiIGZvbnQtc2l6ZT0iMTQiIGxlbmd0aEFkanVzdD0ic3BhY2luZyIgdGV4dExlbmd0aD0iNDkiIHg9IjM3LjUiIHk9IjUxOC43MzQ0Ij5TZXNzaW9uPC90ZXh0PjxsaW5lIHN0eWxlPSJzdHJva2U6IzE4MTgxODtzdHJva2Utd2lkdGg6MC41OyIgeDE9IjE1IiB4Mj0iMTA5IiB5MT0iNTI1LjQ4NDQiIHkyPSI1MjUuNDg0NCIvPjx0ZXh0IGZpbGw9IiMwMDAwMDAiIGZvbnQtZmFtaWx5PSJzYW5zLXNlcmlmIiBmb250LXNpemU9IjE0IiBmb250LXdlaWdodD0iYm9sZCIgbGVuZ3RoQWRqdXN0PSJzcGFjaW5nIiB0ZXh0TGVuZ3RoPSIzNSIgeD0iMjAiIHk9IjU0Mi43MTg4Ij5QSyBpZDwvdGV4dD48dGV4dCBmaWxsPSIjMDAwMDAwIiBmb250LWZhbWlseT0ic2Fucy1zZXJpZiIgZm9udC1zaXplPSIxNCIgbGVuZ3RoQWRqdXN0PSJzcGFjaW5nIiB0ZXh0TGVuZ3RoPSI0OSIgeD0iMjAiIHk9IjU1Ny43MDMxIj5zdWJqZWN0PC90ZXh0Pjx0ZXh0IGZpbGw9IiMwMDAwMDAiIGZvbnQtZmFtaWx5PSJzYW5zLXNlcmlmIiBmb250LXNpemU9IjE0IiBsZW5ndGhBZGp1c3Q9InNwYWNpbmciIHRleHRMZW5ndGg9Ijg0IiB4PSIyMCIgeT0iNTcyLjY4NzUiPkZLIHRlYWNoZXJJZDwvdGV4dD48dGV4dCBmaWxsPSIjMDAwMDAwIiBmb250LWZhbWlseT0ic2Fucy1zZXJpZiIgZm9udC1zaXplPSIxNCIgbGVuZ3RoQWRqdXN0PSJzcGFjaW5nIiB0ZXh0TGVuZ3RoPSI2NCIgeD0iMjAiIHk9IjU4Ny42NzE5Ij5zdGFydFRpbWU8L3RleHQ+PHRleHQgZmlsbD0iIzAwMDAwMCIgZm9udC1mYW1pbHk9InNhbnMtc2VyaWYiIGZvbnQtc2l6ZT0iMTQiIGxlbmd0aEFkanVzdD0ic3BhY2luZyIgdGV4dExlbmd0aD0iNTAiIHg9IjIwIiB5PSI2MDIuNjU2MyI+ZW5kVGltZTwvdGV4dD48dGV4dCBmaWxsPSIjMDAwMDAwIiBmb250LWZhbWlseT0ic2Fucy1zZXJpZiIgZm9udC1zaXplPSIxNCIgbGVuZ3RoQWRqdXN0PSJzcGFjaW5nIiB0ZXh0TGVuZ3RoPSIyMSIgeD0iMjAiIHk9IjYxNy42NDA2Ij5kYXk8L3RleHQ+PC9nPjwhLS1jbGFzcyBSZXBvcnQtLT48ZyBpZD0iZWxlbV9SZXBvcnQiPjxyZWN0IGNvZGVMaW5lPSIxMDkiIGZpbGw9IiNGMUYxRjEiIGhlaWdodD0iMTA3LjkwNjMiIGlkPSJSZXBvcnQiIHJ4PSIyLjUiIHJ5PSIyLjUiIHN0eWxlPSJzdHJva2U6IzE4MTgxODtzdHJva2Utd2lkdGg6MC41OyIgd2lkdGg9IjExMCIgeD0iNTk4IiB5PSI3MDYiLz48dGV4dCBmaWxsPSIjMDAwMDAwIiBmb250LWZhbWlseT0ic2Fucy1zZXJpZiIgZm9udC1zaXplPSIxNCIgbGVuZ3RoQWRqdXN0PSJzcGFjaW5nIiB0ZXh0TGVuZ3RoPSI0MiIgeD0iNjMyIiB5PSI3MjQuMjM0NCI+UmVwb3J0PC90ZXh0PjxsaW5lIHN0eWxlPSJzdHJva2U6IzE4MTgxODtzdHJva2Utd2lkdGg6MC41OyIgeDE9IjU5OSIgeDI9IjcwNyIgeTE9IjczMC45ODQ0IiB5Mj0iNzMwLjk4NDQiLz48dGV4dCBmaWxsPSIjMDAwMDAwIiBmb250LWZhbWlseT0ic2Fucy1zZXJpZiIgZm9udC1zaXplPSIxNCIgZm9udC13ZWlnaHQ9ImJvbGQiIGxlbmd0aEFkanVzdD0ic3BhY2luZyIgdGV4dExlbmd0aD0iMzUiIHg9IjYwNCIgeT0iNzQ4LjIxODgiPlBLIGlkPC90ZXh0Pjx0ZXh0IGZpbGw9IiMwMDAwMDAiIGZvbnQtZmFtaWx5PSJzYW5zLXNlcmlmIiBmb250LXNpemU9IjE0IiBsZW5ndGhBZGp1c3Q9InNwYWNpbmciIHRleHRMZW5ndGg9IjI4IiB4PSI2MDQiIHk9Ijc2My4yMDMxIj50eXBlPC90ZXh0Pjx0ZXh0IGZpbGw9IiMwMDAwMDAiIGZvbnQtZmFtaWx5PSJzYW5zLXNlcmlmIiBmb250LXNpemU9IjE0IiBsZW5ndGhBZGp1c3Q9InNwYWNpbmciIHRleHRMZW5ndGg9IjI4IiB4PSI2MDQiIHk9Ijc3OC4xODc1Ij5kYXRlPC90ZXh0Pjx0ZXh0IGZpbGw9IiMwMDAwMDAiIGZvbnQtZmFtaWx5PSJzYW5zLXNlcmlmIiBmb250LXNpemU9IjE0IiBsZW5ndGhBZGp1c3Q9InNwYWNpbmciIHRleHRMZW5ndGg9Ijk4IiB4PSI2MDQiIHk9Ijc5My4xNzE5Ij5GSyBnZW5lcmF0ZWRCeTwvdGV4dD48dGV4dCBmaWxsPSIjMDAwMDAwIiBmb250LWZhbWlseT0ic2Fucy1zZXJpZiIgZm9udC1zaXplPSIxNCIgbGVuZ3RoQWRqdXN0PSJzcGFjaW5nIiB0ZXh0TGVuZ3RoPSI0OSIgeD0iNjA0IiB5PSI4MDguMTU2MyI+Y29udGVudDwvdGV4dD48L2c+PCEtLWNsYXNzIFN0dWRlbnRSZWNvcmQtLT48ZyBpZD0iZWxlbV9TdHVkZW50UmVjb3JkIj48cmVjdCBjb2RlTGluZT0iMTE3IiBmaWxsPSIjRjFGMUYxIiBoZWlnaHQ9IjEzNy44NzUiIGlkPSJTdHVkZW50UmVjb3JkIiByeD0iMi41IiByeT0iMi41IiBzdHlsZT0ic3Ryb2tlOiMxODE4MTg7c3Ryb2tlLXdpZHRoOjAuNTsiIHdpZHRoPSI5NyIgeD0iNTM1LjUiIHk9IjQ5MyIvPjx0ZXh0IGZpbGw9IiMwMDAwMDAiIGZvbnQtZmFtaWx5PSJzYW5zLXNlcmlmIiBmb250LXNpemU9IjE0IiBsZW5ndGhBZGp1c3Q9InNwYWNpbmciIHRleHRMZW5ndGg9IjkxIiB4PSI1MzguNSIgeT0iNTExLjIzNDQiPlN0dWRlbnRSZWNvcmQ8L3RleHQ+PGxpbmUgc3R5bGU9InN0cm9rZTojMTgxODE4O3N0cm9rZS13aWR0aDowLjU7IiB4MT0iNTM2LjUiIHgyPSI2MzEuNSIgeTE9IjUxNy45ODQ0IiB5Mj0iNTE3Ljk4NDQiLz48dGV4dCBmaWxsPSIjMDAwMDAwIiBmb250LWZhbWlseT0ic2Fucy1zZXJpZiIgZm9udC1zaXplPSIxNCIgZm9udC13ZWlnaHQ9ImJvbGQiIGxlbmd0aEFkanVzdD0ic3BhY2luZyIgdGV4dExlbmd0aD0iODQiIHg9IjU0MS41IiB5PSI1MzUuMjE4OCI+UEsgc3R1ZGVudElkPC90ZXh0Pjx0ZXh0IGZpbGw9IiMwMDAwMDAiIGZvbnQtZmFtaWx5PSJzYW5zLXNlcmlmIiBmb250LXNpemU9IjE0IiBsZW5ndGhBZGp1c3Q9InNwYWNpbmciIHRleHRMZW5ndGg9Ijg0IiB4PSI1NDEuNSIgeT0iNTUwLjIwMzEiPkZLIHN0dWRlbnRJZDwvdGV4dD48dGV4dCBmaWxsPSIjMDAwMDAwIiBmb250LWZhbWlseT0ic2Fucy1zZXJpZiIgZm9udC1zaXplPSIxNCIgbGVuZ3RoQWRqdXN0PSJzcGFjaW5nIiB0ZXh0TGVuZ3RoPSI4NCIgeD0iNTQxLjUiIHk9IjU2NS4xODc1Ij5jdXJyZW50R3JhZGU8L3RleHQ+PHRleHQgZmlsbD0iIzAwMDAwMCIgZm9udC1mYW1pbHk9InNhbnMtc2VyaWYiIGZvbnQtc2l6ZT0iMTQiIGxlbmd0aEFkanVzdD0ic3BhY2luZyIgdGV4dExlbmd0aD0iODUiIHg9IjU0MS41IiB5PSI1ODAuMTcxOSI+YWNhZGVtaWNZZWFyPC90ZXh0Pjx0ZXh0IGZpbGw9IiMwMDAwMDAiIGZvbnQtZmFtaWx5PSJzYW5zLXNlcmlmIiBmb250LXNpemU9IjE0IiBsZW5ndGhBZGp1c3Q9InNwYWNpbmciIHRleHRMZW5ndGg9IjU2IiB4PSI1NDEuNSIgeT0iNTk1LjE1NjMiPnN1YmplY3RzPC90ZXh0Pjx0ZXh0IGZpbGw9IiMwMDAwMDAiIGZvbnQtZmFtaWx5PSJzYW5zLXNlcmlmIiBmb250LXNpemU9IjE0IiBsZW5ndGhBZGp1c3Q9InNwYWNpbmciIHRleHRMZW5ndGg9IjcwIiB4PSI1NDEuNSIgeT0iNjEwLjE0MDYiPmF0dGVuZGFuY2U8L3RleHQ+PHRleHQgZmlsbD0iIzAwMDAwMCIgZm9udC1mYW1pbHk9InNhbnMtc2VyaWYiIGZvbnQtc2l6ZT0iMTQiIGxlbmd0aEFkanVzdD0ic3BhY2luZyIgdGV4dExlbmd0aD0iODUiIHg9IjU0MS41IiB5PSI2MjUuMTI1Ij5hY2hpZXZlbWVudHM8L3RleHQ+PC9nPjwhLS1jbGFzcyBMb2ctLT48ZyBpZD0iZWxlbV9Mb2ciPjxyZWN0IGNvZGVMaW5lPSIxMjciIGZpbGw9IiNGMUYxRjEiIGhlaWdodD0iMTA3LjkwNjMiIGlkPSJMb2ciIHJ4PSIyLjUiIHJ5PSIyLjUiIHN0eWxlPSJzdHJva2U6IzE4MTgxODtzdHJva2Utd2lkdGg6MC41OyIgd2lkdGg9Ijc3IiB4PSI0MDMuNSIgeT0iMzAyLjUiLz48dGV4dCBmaWxsPSIjMDAwMDAwIiBmb250LWZhbWlseT0ic2Fucy1zZXJpZiIgZm9udC1zaXplPSIxNCIgbGVuZ3RoQWRqdXN0PSJzcGFjaW5nIiB0ZXh0TGVuZ3RoPSIyMSIgeD0iNDMxLjUiIHk9IjMyMC43MzQ0Ij5Mb2c8L3RleHQ+PGxpbmUgc3R5bGU9InN0cm9rZTojMTgxODE4O3N0cm9rZS13aWR0aDowLjU7IiB4MT0iNDA0LjUiIHgyPSI0NzkuNSIgeTE9IjMyNy40ODQ0IiB5Mj0iMzI3LjQ4NDQiLz48dGV4dCBmaWxsPSIjMDAwMDAwIiBmb250LWZhbWlseT0ic2Fucy1zZXJpZiIgZm9udC1zaXplPSIxNCIgZm9udC13ZWlnaHQ9ImJvbGQiIGxlbmd0aEFkanVzdD0ic3BhY2luZyIgdGV4dExlbmd0aD0iMzUiIHg9IjQwOS41IiB5PSIzNDQuNzE4OCI+UEsgaWQ8L3RleHQ+PHRleHQgZmlsbD0iIzAwMDAwMCIgZm9udC1mYW1pbHk9InNhbnMtc2VyaWYiIGZvbnQtc2l6ZT0iMTQiIGxlbmd0aEFkanVzdD0ic3BhY2luZyIgdGV4dExlbmd0aD0iNDIiIHg9IjQwOS41IiB5PSIzNTkuNzAzMSI+YWN0aW9uPC90ZXh0Pjx0ZXh0IGZpbGw9IiMwMDAwMDAiIGZvbnQtZmFtaWx5PSJzYW5zLXNlcmlmIiBmb250LXNpemU9IjE0IiBsZW5ndGhBZGp1c3Q9InNwYWNpbmciIHRleHRMZW5ndGg9IjY1IiB4PSI0MDkuNSIgeT0iMzc0LjY4NzUiPnRpbWVzdGFtcDwvdGV4dD48dGV4dCBmaWxsPSIjMDAwMDAwIiBmb250LWZhbWlseT0ic2Fucy1zZXJpZiIgZm9udC1zaXplPSIxNCIgbGVuZ3RoQWRqdXN0PSJzcGFjaW5nIiB0ZXh0TGVuZ3RoPSI2MyIgeD0iNDA5LjUiIHk9IjM4OS42NzE5Ij5GSyB1c2VySWQ8L3RleHQ+PHRleHQgZmlsbD0iIzAwMDAwMCIgZm9udC1mYW1pbHk9InNhbnMtc2VyaWYiIGZvbnQtc2l6ZT0iMTQiIGxlbmd0aEFkanVzdD0ic3BhY2luZyIgdGV4dExlbmd0aD0iNDkiIHg9IjQwOS41IiB5PSI0MDQuNjU2MyI+ZGV0YWlsczwvdGV4dD48L2c+PCEtLWxpbmsgVXNlciB0byBTdHVkZW50LS0+PGcgaWQ9ImxpbmtfVXNlcl9TdHVkZW50Ij48cGF0aCBjb2RlTGluZT0iMTM2IiBkPSJNNDYxLjI1LDIyOC4wMyBDNDYxLjI1LDI2NC4zNiA0NjEuMjUsMjg4IDQ2MS4yNSwyODggQzQ2MS4yNSwyODggNDcwLjI2LDI4OCA0OTcuNDgsMjg4ICIgZmlsbD0ibm9uZSIgaWQ9IlVzZXItU3R1ZGVudCIgc3R5bGU9InN0cm9rZTojMTgxODE4O3N0cm9rZS13aWR0aDoxLjA7Ii8+PGxpbmUgc3R5bGU9InN0cm9rZTojMTgxODE4O3N0cm9rZS13aWR0aDoxLjA7IiB4MT0iNDU3LjI1IiB4Mj0iNDY1LjI1IiB5MT0iMjI0LjAzIiB5Mj0iMjI0LjAzIi8+PGxpbmUgc3R5bGU9InN0cm9rZTojMTgxODE4O3N0cm9rZS13aWR0aDoxLjA7IiB4MT0iNDU3LjI1IiB4Mj0iNDY1LjI1IiB5MT0iMjI3LjAzIiB5Mj0iMjI3LjAzIi8+PGxpbmUgc3R5bGU9InN0cm9rZTojMTgxODE4O3N0cm9rZS13aWR0aDoxLjA7IiB4MT0iNDYxLjI1IiB4Mj0iNDYxLjI1IiB5MT0iMjI4LjAzIiB5Mj0iMjIwLjAzIi8+PGxpbmUgc3R5bGU9InN0cm9rZTojMTgxODE4O3N0cm9rZS13aWR0aDoxLjA7IiB4MT0iNTA3LjQ4IiB4Mj0iNTE1LjQ4IiB5MT0iMjg4IiB5Mj0iMjgyIi8+PGxpbmUgc3R5bGU9InN0cm9rZTojMTgxODE4O3N0cm9rZS13aWR0aDoxLjA7IiB4MT0iNTA3LjQ4IiB4Mj0iNTE1LjQ4IiB5MT0iMjg4IiB5Mj0iMjk0Ii8+PGxpbmUgc3R5bGU9InN0cm9rZTojMTgxODE4O3N0cm9rZS13aWR0aDoxLjA7IiB4MT0iNTA3LjQ4IiB4Mj0iNTE1LjQ4IiB5MT0iMjg4IiB5Mj0iMjg4Ii8+PGVsbGlwc2UgY3g9IjUwMS40OCIgY3k9IjI4OCIgZmlsbD0ibm9uZSIgcng9IjQiIHJ5PSI0IiBzdHlsZT0ic3Ryb2tlOiMxODE4MTg7c3Ryb2tlLXdpZHRoOjEuMDsiLz48dGV4dCBmaWxsPSIjMDAwMDAwIiBmb250LWZhbWlseT0ic2Fucy1zZXJpZiIgZm9udC1zaXplPSIxMyIgbGVuZ3RoQWRqdXN0PSJzcGFjaW5nIiB0ZXh0TGVuZ3RoPSIyNyIgeD0iNDMzLjI1IiB5PSIyNzkuNDE5MSI+aXMgYTwvdGV4dD48L2c+PCEtLWxpbmsgVXNlciB0byBUZWFjaGVyLS0+PGcgaWQ9ImxpbmtfVXNlcl9UZWFjaGVyIj48cGF0aCBjb2RlTGluZT0iMTM3IiBkPSJNNDIyLjc1LDIyOC4wNiBDNDIyLjc1LDI2OS40IDQyMi43NSwyOTkgNDIyLjc1LDI5OSBDNDIyLjc1LDI5OSAzMzAuMywyOTkgMjYyLjU2LDI5OSAiIGZpbGw9Im5vbmUiIGlkPSJVc2VyLVRlYWNoZXIiIHN0eWxlPSJzdHJva2U6IzE4MTgxODtzdHJva2Utd2lkdGg6MS4wOyIvPjxsaW5lIHN0eWxlPSJzdHJva2U6IzE4MTgxODtzdHJva2Utd2lkdGg6MS4wOyIgeDE9IjQxOC43NSIgeDI9IjQyNi43NSIgeTE9IjIyNC4wNiIgeTI9IjIyNC4wNiIvPjxsaW5lIHN0eWxlPSJzdHJva2U6IzE4MTgxODtzdHJva2Utd2lkdGg6MS4wOyIgeDE9IjQxOC43NSIgeDI9IjQyNi43NSIgeTE9IjIyNy4wNiIgeTI9IjIyNy4wNiIvPjxsaW5lIHN0eWxlPSJzdHJva2U6IzE4MTgxODtzdHJva2Utd2lkdGg6MS4wOyIgeDE9IjQyMi43NSIgeDI9IjQyMi43NSIgeTE9IjIyOC4wNiIgeTI9IjIyMC4wNiIvPjxsaW5lIHN0eWxlPSJzdHJva2U6IzE4MTgxODtzdHJva2Utd2lkdGg6MS4wOyIgeDE9IjI1Mi41NiIgeDI9IjI0NC41NiIgeTE9IjI5OSIgeTI9IjMwNSIvPjxsaW5lIHN0eWxlPSJzdHJva2U6IzE4MTgxODtzdHJva2Utd2lkdGg6MS4wOyIgeDE9IjI1Mi41NiIgeDI9IjI0NC41NiIgeTE9IjI5OSIgeTI9IjI5MyIvPjxsaW5lIHN0eWxlPSJzdHJva2U6IzE4MTgxODtzdHJva2Utd2lkdGg6MS4wOyIgeDE9IjI1Mi41NiIgeDI9IjI0NC41NiIgeTE9IjI5OSIgeTI9IjI5OSIvPjxlbGxpcHNlIGN4PSIyNTguNTYiIGN5PSIyOTkiIGZpbGw9Im5vbmUiIHJ4PSI0IiByeT0iNCIgc3R5bGU9InN0cm9rZTojMTgxODE4O3N0cm9rZS13aWR0aDoxLjA7Ii8+PHRleHQgZmlsbD0iIzAwMDAwMCIgZm9udC1mYW1pbHk9InNhbnMtc2VyaWYiIGZvbnQtc2l6ZT0iMTMiIGxlbmd0aEFkanVzdD0ic3BhY2luZyIgdGV4dExlbmd0aD0iMjciIHg9IjM0NS4xMiIgeT0iMjk3LjI4OTEiPmlzIGE8L3RleHQ+PC9nPjwhLS1saW5rIFVzZXIgdG8gQWRtaW4tLT48ZyBpZD0ibGlua19Vc2VyX0FkbWluIj48cGF0aCBjb2RlTGluZT0iMTM4IiBkPSJNMzg5LjM5LDExNCBDMzU1Ljk3LDExNCAzMjQsMTE0IDMyNCwxMTQgQzMyNCwxMTQgMzI0LDIzMC42NCAzMjQsMjk5LjI3ICIgZmlsbD0ibm9uZSIgaWQ9IlVzZXItQWRtaW4iIHN0eWxlPSJzdHJva2U6IzE4MTgxODtzdHJva2Utd2lkdGg6MS4wOyIvPjxsaW5lIHN0eWxlPSJzdHJva2U6IzE4MTgxODtzdHJva2Utd2lkdGg6MS4wOyIgeDE9IjM5My4zOSIgeDI9IjM5My4zOSIgeTE9IjExMCIgeTI9IjExOCIvPjxsaW5lIHN0eWxlPSJzdHJva2U6IzE4MTgxODtzdHJva2Utd2lkdGg6MS4wOyIgeDE9IjM5MC4zOSIgeDI9IjM5MC4zOSIgeTE9IjExMCIgeTI9IjExOCIvPjxsaW5lIHN0eWxlPSJzdHJva2U6IzE4MTgxODtzdHJva2Utd2lkdGg6MS4wOyIgeDE9IjM4OS4zOSIgeDI9IjM5Ny4zOSIgeTE9IjExNCIgeTI9IjExNCIvPjxsaW5lIHN0eWxlPSJzdHJva2U6IzE4MTgxODtzdHJva2Utd2lkdGg6MS4wOyIgeDE9IjMyNCIgeDI9IjMzMCIgeTE9IjMwOS4yNyIgeTI9IjMxNy4yNyIvPjxsaW5lIHN0eWxlPSJzdHJva2U6IzE4MTgxODtzdHJva2Utd2lkdGg6MS4wOyIgeDE9IjMyNCIgeDI9IjMxOCIgeTE9IjMwOS4yNyIgeTI9IjMxNy4yNyIvPjxsaW5lIHN0eWxlPSJzdHJva2U6IzE4MTgxODtzdHJva2Utd2lkdGg6MS4wOyIgeDE9IjMyNCIgeDI9IjMyNCIgeTE9IjMwOS4yNyIgeTI9IjMxNy4yNyIvPjxlbGxpcHNlIGN4PSIzMjQiIGN5PSIzMDMuMjciIGZpbGw9Im5vbmUiIHJ4PSI0IiByeT0iNCIgc3R5bGU9InN0cm9rZTojMTgxODE4O3N0cm9rZS13aWR0aDoxLjA7Ii8+PHRleHQgZmlsbD0iIzAwMDAwMCIgZm9udC1mYW1pbHk9InNhbnMtc2VyaWYiIGZvbnQtc2l6ZT0iMTMiIGxlbmd0aEFkanVzdD0ic3BhY2luZyIgdGV4dExlbmd0aD0iMjciIHg9IjI5NiIgeT0iMTc3LjIyOTEiPmlzIGE8L3RleHQ+PC9nPjwhLS1saW5rIFVzZXIgdG8gUHJpbmNpcGFsLS0+PGcgaWQ9ImxpbmtfVXNlcl9QcmluY2lwYWwiPjxwYXRoIGNvZGVMaW5lPSIxMzkiIGQ9Ik00OTQuNTIsMTE0IEM1NzMuMjksMTE0IDcyMSwxMTQgNzIxLDExNCBDNzIxLDExNCA3MjEsMjMwLjY0IDcyMSwyOTkuMjcgIiBmaWxsPSJub25lIiBpZD0iVXNlci1QcmluY2lwYWwiIHN0eWxlPSJzdHJva2U6IzE4MTgxODtzdHJva2Utd2lkdGg6MS4wOyIvPjxsaW5lIHN0eWxlPSJzdHJva2U6IzE4MTgxODtzdHJva2Utd2lkdGg6MS4wOyIgeDE9IjQ5MC41MiIgeDI9IjQ5MC41MiIgeTE9IjExOCIgeTI9IjExMCIvPjxsaW5lIHN0eWxlPSJzdHJva2U6IzE4MTgxODtzdHJva2Utd2lkdGg6MS4wOyIgeDE9IjQ5My41MiIgeDI9IjQ5My41MiIgeTE9IjExOCIgeTI9IjExMCIvPjxsaW5lIHN0eWxlPSJzdHJva2U6IzE4MTgxODtzdHJva2Utd2lkdGg6MS4wOyIgeDE9IjQ5NC41MiIgeDI9IjQ4Ni41MiIgeTE9IjExNCIgeTI9IjExNCIvPjxsaW5lIHN0eWxlPSJzdHJva2U6IzE4MTgxODtzdHJva2Utd2lkdGg6MS4wOyIgeDE9IjcyMSIgeDI9IjcyNyIgeTE9IjMwOS4yNyIgeTI9IjMxNy4yNyIvPjxsaW5lIHN0eWxlPSJzdHJva2U6IzE4MTgxODtzdHJva2Utd2lkdGg6MS4wOyIgeDE9IjcyMSIgeDI9IjcxNSIgeTE9IjMwOS4yNyIgeTI9IjMxNy4yNyIvPjxsaW5lIHN0eWxlPSJzdHJva2U6IzE4MTgxODtzdHJva2Utd2lkdGg6MS4wOyIgeDE9IjcyMSIgeDI9IjcyMSIgeTE9IjMwOS4yNyIgeTI9IjMxNy4yNyIvPjxlbGxpcHNlIGN4PSI3MjEiIGN5PSIzMDMuMjciIGZpbGw9Im5vbmUiIHJ4PSI0IiByeT0iNCIgc3R5bGU9InN0cm9rZTojMTgxODE4O3N0cm9rZS13aWR0aDoxLjA7Ii8+PHRleHQgZmlsbD0iIzAwMDAwMCIgZm9udC1mYW1pbHk9InNhbnMtc2VyaWYiIGZvbnQtc2l6ZT0iMTMiIGxlbmd0aEFkanVzdD0ic3BhY2luZyIgdGV4dExlbmd0aD0iMjciIHg9IjY3Ny4zOSIgeT0iMTEyLjI4OTEiPmlzIGE8L3RleHQ+PC9nPjwhLS1saW5rIFRlYWNoZXIgdG8gU2VjdGlvbkhlYWQtLT48ZyBpZD0ibGlua19UZWFjaGVyX1NlY3Rpb25IZWFkIj48cGF0aCBjb2RlTGluZT0iMTQxIiBkPSJNMjA5LDQyNi4xNiBDMjA5LDQ2MC4wOSAyMDksNDc1LjE4IDIwOSw1MDQuNzQgIiBmaWxsPSJub25lIiBpZD0iVGVhY2hlci1TZWN0aW9uSGVhZCIgc3R5bGU9InN0cm9rZTojMTgxODE4O3N0cm9rZS13aWR0aDoxLjA7Ii8+PGxpbmUgc3R5bGU9InN0cm9rZTojMTgxODE4O3N0cm9rZS13aWR0aDoxLjA7IiB4MT0iMjA1IiB4Mj0iMjEzIiB5MT0iNDIyLjE2IiB5Mj0iNDIyLjE2Ii8+PGxpbmUgc3R5bGU9InN0cm9rZTojMTgxODE4O3N0cm9rZS13aWR0aDoxLjA7IiB4MT0iMjA1IiB4Mj0iMjEzIiB5MT0iNDI1LjE2IiB5Mj0iNDI1LjE2Ii8+PGxpbmUgc3R5bGU9InN0cm9rZTojMTgxODE4O3N0cm9rZS13aWR0aDoxLjA7IiB4MT0iMjA5IiB4Mj0iMjA5IiB5MT0iNDI2LjE2IiB5Mj0iNDE4LjE2Ii8+PGxpbmUgc3R5bGU9InN0cm9rZTojMTgxODE4O3N0cm9rZS13aWR0aDoxLjA7IiB4MT0iMjA5IiB4Mj0iMjE1IiB5MT0iNTE0Ljc0IiB5Mj0iNTIyLjc0Ii8+PGxpbmUgc3R5bGU9InN0cm9rZTojMTgxODE4O3N0cm9rZS13aWR0aDoxLjA7IiB4MT0iMjA5IiB4Mj0iMjAzIiB5MT0iNTE0Ljc0IiB5Mj0iNTIyLjc0Ii8+PGxpbmUgc3R5bGU9InN0cm9rZTojMTgxODE4O3N0cm9rZS13aWR0aDoxLjA7IiB4MT0iMjA5IiB4Mj0iMjA5IiB5MT0iNTE0Ljc0IiB5Mj0iNTIyLjc0Ii8+PGVsbGlwc2UgY3g9IjIwOSIgY3k9IjUwOC43NCIgZmlsbD0ibm9uZSIgcng9IjQiIHJ5PSI0IiBzdHlsZT0ic3Ryb2tlOiMxODE4MTg7c3Ryb2tlLXdpZHRoOjEuMDsiLz48dGV4dCBmaWxsPSIjMDAwMDAwIiBmb250LWZhbWlseT0ic2Fucy1zZXJpZiIgZm9udC1zaXplPSIxMyIgbGVuZ3RoQWRqdXN0PSJzcGFjaW5nIiB0ZXh0TGVuZ3RoPSI0MiIgeD0iMTY2IiB5PSI0NjguNzM5MSI+Y2FuIGJlPC90ZXh0PjwvZz48IS0tbGluayBTdHVkZW50IHRvIEFzc2Vzc21lbnQtLT48ZyBpZD0ibGlua19TdHVkZW50X0Fzc2Vzc21lbnQiPjxwYXRoIGNvZGVMaW5lPSIxNDIiIGQ9Ik00OTcuMzIsNDIzIEM0MjcuMTIsNDIzIDMzMy41LDQyMyAzMzMuNSw0MjMgQzMzMy41LDQyMyAzMzMuNSw1ODQuNCAzMzMuNSw2ODIuOTkgIiBmaWxsPSJub25lIiBpZD0iU3R1ZGVudC1Bc3Nlc3NtZW50IiBzdHlsZT0ic3Ryb2tlOiMxODE4MTg7c3Ryb2tlLXdpZHRoOjEuMDsiLz48bGluZSBzdHlsZT0ic3Ryb2tlOiMxODE4MTg7c3Ryb2tlLXdpZHRoOjEuMDsiIHgxPSI1MDcuMzIiIHgyPSI1MTUuMzIiIHkxPSI0MjMiIHkyPSI0MTciLz48bGluZSBzdHlsZT0ic3Ryb2tlOiMxODE4MTg7c3Ryb2tlLXdpZHRoOjEuMDsiIHgxPSI1MDcuMzIiIHgyPSI1MTUuMzIiIHkxPSI0MjMiIHkyPSI0MjkiLz48bGluZSBzdHlsZT0ic3Ryb2tlOiMxODE4MTg7c3Ryb2tlLXdpZHRoOjEuMDsiIHgxPSI1MDcuMzIiIHgyPSI1MTUuMzIiIHkxPSI0MjMiIHkyPSI0MjMiLz48ZWxsaXBzZSBjeD0iNTAxLjMyIiBjeT0iNDIzIiBmaWxsPSJub25lIiByeD0iNCIgcnk9IjQiIHN0eWxlPSJzdHJva2U6IzE4MTgxODtzdHJva2Utd2lkdGg6MS4wOyIvPjxsaW5lIHN0eWxlPSJzdHJva2U6IzE4MTgxODtzdHJva2Utd2lkdGg6MS4wOyIgeDE9IjMzNy41IiB4Mj0iMzI5LjUiIHkxPSI2ODYuOTkiIHkyPSI2ODYuOTkiLz48bGluZSBzdHlsZT0ic3Ryb2tlOiMxODE4MTg7c3Ryb2tlLXdpZHRoOjEuMDsiIHgxPSIzMzcuNSIgeDI9IjMyOS41IiB5MT0iNjgzLjk5IiB5Mj0iNjgzLjk5Ii8+PGxpbmUgc3R5bGU9InN0cm9rZTojMTgxODE4O3N0cm9rZS13aWR0aDoxLjA7IiB4MT0iMzMzLjUiIHgyPSIzMzMuNSIgeTE9IjY4Mi45OSIgeTI9IjY5MC45OSIvPjx0ZXh0IGZpbGw9IiMwMDAwMDAiIGZvbnQtZmFtaWx5PSJzYW5zLXNlcmlmIiBmb250LXNpemU9IjEzIiBsZW5ndGhBZGp1c3Q9InNwYWNpbmciIHRleHRMZW5ndGg9IjQ2IiB4PSIyODYuNSIgeT0iNDY0LjM3OTEiPnN1Ym1pdHM8L3RleHQ+PC9nPjwhLS1saW5rIFRlYWNoZXIgdG8gQXNzZXNzbWVudC0tPjxnIGlkPSJsaW5rX1RlYWNoZXJfQXNzZXNzbWVudCI+PHBhdGggY29kZUxpbmU9IjE0MyIgZD0iTTI1Mi42Niw0MTYgQzI4Ny44Miw0MTYgMzIwLDQxNiAzMjAsNDE2IEMzMjAsNDE2IDMyMCw1NzIuMzUgMzIwLDY3Mi44ICIgZmlsbD0ibm9uZSIgaWQ9IlRlYWNoZXItQXNzZXNzbWVudCIgc3R5bGU9InN0cm9rZTojMTgxODE4O3N0cm9rZS13aWR0aDoxLjA7Ii8+PGxpbmUgc3R5bGU9InN0cm9rZTojMTgxODE4O3N0cm9rZS13aWR0aDoxLjA7IiB4MT0iMjQ4LjY2IiB4Mj0iMjQ4LjY2IiB5MT0iNDIwIiB5Mj0iNDEyIi8+PGxpbmUgc3R5bGU9InN0cm9rZTojMTgxODE4O3N0cm9rZS13aWR0aDoxLjA7IiB4MT0iMjUxLjY2IiB4Mj0iMjUxLjY2IiB5MT0iNDIwIiB5Mj0iNDEyIi8+PGxpbmUgc3R5bGU9InN0cm9rZTojMTgxODE4O3N0cm9rZS13aWR0aDoxLjA7IiB4MT0iMjUyLjY2IiB4Mj0iMjQ0LjY2IiB5MT0iNDE2IiB5Mj0iNDE2Ii8+PGxpbmUgc3R5bGU9InN0cm9rZTojMTgxODE4O3N0cm9rZS13aWR0aDoxLjA7IiB4MT0iMzIwIiB4Mj0iMzI2IiB5MT0iNjgyLjgiIHkyPSI2OTAuOCIvPjxsaW5lIHN0eWxlPSJzdHJva2U6IzE4MTgxODtzdHJva2Utd2lkdGg6MS4wOyIgeDE9IjMyMCIgeDI9IjMxNCIgeTE9IjY4Mi44IiB5Mj0iNjkwLjgiLz48bGluZSBzdHlsZT0ic3Ryb2tlOiMxODE4MTg7c3Ryb2tlLXdpZHRoOjEuMDsiIHgxPSIzMjAiIHgyPSIzMjAiIHkxPSI2ODIuOCIgeTI9IjY5MC44Ii8+PGVsbGlwc2UgY3g9IjMyMCIgY3k9IjY3Ni44IiBmaWxsPSJub25lIiByeD0iNCIgcnk9IjQiIHN0eWxlPSJzdHJva2U6IzE4MTgxODtzdHJva2Utd2lkdGg6MS4wOyIvPjx0ZXh0IGZpbGw9IiMwMDAwMDAiIGZvbnQtZmFtaWx5PSJzYW5zLXNlcmlmIiBmb250LXNpemU9IjEzIiBsZW5ndGhBZGp1c3Q9InNwYWNpbmciIHRleHRMZW5ndGg9IjQ4IiB4PSIyNzEiIHk9IjUxNC4wMTkxIj5jcmVhdGVzPC90ZXh0PjwvZz48IS0tbGluayBTdHVkZW50IHRvIEV4YW0tLT48ZyBpZD0ibGlua19TdHVkZW50X0V4YW0iPjxwYXRoIGNvZGVMaW5lPSIxNDQiIGQ9Ik00OTcuMTMsNDI4IEM0NTIuODEsNDI4IDQxNi4yNSw0MjggNDE2LjI1LDQyOCBDNDE2LjI1LDQyOCA0MTYuMjUsNDU3LjI2IDQxNi4yNSw0OTIuNDkgIiBmaWxsPSJub25lIiBpZD0iU3R1ZGVudC1FeGFtIiBzdHlsZT0ic3Ryb2tlOiMxODE4MTg7c3Ryb2tlLXdpZHRoOjEuMDsiLz48bGluZSBzdHlsZT0ic3Ryb2tlOiMxODE4MTg7c3Ryb2tlLXdpZHRoOjEuMDsiIHgxPSI1MDcuMTMiIHgyPSI1MTUuMTMiIHkxPSI0MjgiIHkyPSI0MjIiLz48bGluZSBzdHlsZT0ic3Ryb2tlOiMxODE4MTg7c3Ryb2tlLXdpZHRoOjEuMDsiIHgxPSI1MDcuMTMiIHgyPSI1MTUuMTMiIHkxPSI0MjgiIHkyPSI0MzQiLz48bGluZSBzdHlsZT0ic3Ryb2tlOiMxODE4MTg7c3Ryb2tlLXdpZHRoOjEuMDsiIHgxPSI1MDcuMTMiIHgyPSI1MTUuMTMiIHkxPSI0MjgiIHkyPSI0MjgiLz48ZWxsaXBzZSBjeD0iNTAxLjEzIiBjeT0iNDI4IiBmaWxsPSJub25lIiByeD0iNCIgcnk9IjQiIHN0eWxlPSJzdHJva2U6IzE4MTgxODtzdHJva2Utd2lkdGg6MS4wOyIvPjxsaW5lIHN0eWxlPSJzdHJva2U6IzE4MTgxODtzdHJva2Utd2lkdGg6MS4wOyIgeDE9IjQyMC4yNSIgeDI9IjQxMi4yNSIgeTE9IjQ5Ni40OSIgeTI9IjQ5Ni40OSIvPjxsaW5lIHN0eWxlPSJzdHJva2U6IzE4MTgxODtzdHJva2Utd2lkdGg6MS4wOyIgeDE9IjQyMC4yNSIgeDI9IjQxMi4yNSIgeTE9IjQ5My40OSIgeTI9IjQ5My40OSIvPjxsaW5lIHN0eWxlPSJzdHJva2U6IzE4MTgxODtzdHJva2Utd2lkdGg6MS4wOyIgeDE9IjQxNi4yNSIgeDI9IjQxNi4yNSIgeTE9IjQ5Mi40OSIgeTI9IjUwMC40OSIvPjx0ZXh0IGZpbGw9IiMwMDAwMDAiIGZvbnQtZmFtaWx5PSJzYW5zLXNlcmlmIiBmb250LXNpemU9IjEzIiBsZW5ndGhBZGp1c3Q9InNwYWNpbmciIHRleHRMZW5ndGg9IjM0IiB4PSIzOTQuNDUiIHk9IjQyNi4yODkxIj50YWtlczwvdGV4dD48L2c+PCEtLWxpbmsgVGVhY2hlciB0byBFeGFtLS0+PGcgaWQ9ImxpbmtfVGVhY2hlcl9FeGFtIj48cGF0aCBjb2RlTGluZT0iMTQ1IiBkPSJNMjUyLjY4LDQxMyBDMzAwLjk5LDQxMyAzNTcuNzUsNDEzIDM1Ny43NSw0MTMgQzM1Ny43NSw0MTMgMzU3Ljc1LDQ0MS4xNyAzNTcuNzUsNDgyLjExICIgZmlsbD0ibm9uZSIgaWQ9IlRlYWNoZXItRXhhbSIgc3R5bGU9InN0cm9rZTojMTgxODE4O3N0cm9rZS13aWR0aDoxLjA7Ii8+PGxpbmUgc3R5bGU9InN0cm9rZTojMTgxODE4O3N0cm9rZS13aWR0aDoxLjA7IiB4MT0iMjQ4LjY4IiB4Mj0iMjQ4LjY4IiB5MT0iNDE3IiB5Mj0iNDA5Ii8+PGxpbmUgc3R5bGU9InN0cm9rZTojMTgxODE4O3N0cm9rZS13aWR0aDoxLjA7IiB4MT0iMjUxLjY4IiB4Mj0iMjUxLjY4IiB5MT0iNDE3IiB5Mj0iNDA5Ii8+PGxpbmUgc3R5bGU9InN0cm9rZTojMTgxODE4O3N0cm9rZS13aWR0aDoxLjA7IiB4MT0iMjUyLjY4IiB4Mj0iMjQ0LjY4IiB5MT0iNDEzIiB5Mj0iNDEzIi8+PGxpbmUgc3R5bGU9InN0cm9rZTojMTgxODE4O3N0cm9rZS13aWR0aDoxLjA7IiB4MT0iMzU3Ljc1IiB4Mj0iMzYzLjc1IiB5MT0iNDkyLjExIiB5Mj0iNTAwLjExIi8+PGxpbmUgc3R5bGU9InN0cm9rZTojMTgxODE4O3N0cm9rZS13aWR0aDoxLjA7IiB4MT0iMzU3Ljc1IiB4Mj0iMzUxLjc1IiB5MT0iNDkyLjExIiB5Mj0iNTAwLjExIi8+PGxpbmUgc3R5bGU9InN0cm9rZTojMTgxODE4O3N0cm9rZS13aWR0aDoxLjA7IiB4MT0iMzU3Ljc1IiB4Mj0iMzU3Ljc1IiB5MT0iNDkyLjExIiB5Mj0iNTAwLjExIi8+PGVsbGlwc2UgY3g9IjM1Ny43NSIgY3k9IjQ4Ni4xMSIgZmlsbD0ibm9uZSIgcng9IjQiIHJ5PSI0IiBzdHlsZT0ic3Ryb2tlOiMxODE4MTg7c3Ryb2tlLXdpZHRoOjEuMDsiLz48dGV4dCBmaWxsPSIjMDAwMDAwIiBmb250LWZhbWlseT0ic2Fucy1zZXJpZiIgZm9udC1zaXplPSIxMyIgbGVuZ3RoQWRqdXN0PSJzcGFjaW5nIiB0ZXh0TGVuZ3RoPSI1NSIgeD0iMjg4Ljc3IiB5PSI0MTEuMjg5MSI+Y29uZHVjdHM8L3RleHQ+PC9nPjwhLS1saW5rIEV4YW0gdG8gRXhhbVJlc3VsdC0tPjxnIGlkPSJsaW5rX0V4YW1fRXhhbVJlc3VsdCI+PHBhdGggY29kZUxpbmU9IjE0NiIgZD0iTTQzNy4xMiw1NjIgQzQ1OS4xMiw1NjIgNDczLjc1LDU2MiA0NzMuNzUsNTYyIEM0NzMuNzUsNTYyIDQ3My43NSw2MTUuNjUgNDczLjc1LDY3Mi43NSAiIGZpbGw9Im5vbmUiIGlkPSJFeGFtLUV4YW1SZXN1bHQiIHN0eWxlPSJzdHJva2U6IzE4MTgxODtzdHJva2Utd2lkdGg6MS4wOyIvPjxsaW5lIHN0eWxlPSJzdHJva2U6IzE4MTgxODtzdHJva2Utd2lkdGg6MS4wOyIgeDE9IjQzMy4xMiIgeDI9IjQzMy4xMiIgeTE9IjU2NiIgeTI9IjU1OCIvPjxsaW5lIHN0eWxlPSJzdHJva2U6IzE4MTgxODtzdHJva2Utd2lkdGg6MS4wOyIgeDE9IjQzNi4xMiIgeDI9IjQzNi4xMiIgeTE9IjU2NiIgeTI9IjU1OCIvPjxsaW5lIHN0eWxlPSJzdHJva2U6IzE4MTgxODtzdHJva2Utd2lkdGg6MS4wOyIgeDE9IjQzNy4xMiIgeDI9IjQyOS4xMiIgeTE9IjU2MiIgeTI9IjU2MiIvPjxsaW5lIHN0eWxlPSJzdHJva2U6IzE4MTgxODtzdHJva2Utd2lkdGg6MS4wOyIgeDE9IjQ3My43NSIgeDI9IjQ3OS43NSIgeTE9IjY4Mi43NSIgeTI9IjY5MC43NSIvPjxsaW5lIHN0eWxlPSJzdHJva2U6IzE4MTgxODtzdHJva2Utd2lkdGg6MS4wOyIgeDE9IjQ3My43NSIgeDI9IjQ2Ny43NSIgeTE9IjY4Mi43NSIgeTI9IjY5MC43NSIvPjxsaW5lIHN0eWxlPSJzdHJva2U6IzE4MTgxODtzdHJva2Utd2lkdGg6MS4wOyIgeDE9IjQ3My43NSIgeDI9IjQ3My43NSIgeTE9IjY4Mi43NSIgeTI9IjY5MC43NSIvPjxlbGxpcHNlIGN4PSI0NzMuNzUiIGN5PSI2NzYuNzUiIGZpbGw9Im5vbmUiIHJ4PSI0IiByeT0iNCIgc3R5bGU9InN0cm9rZTojMTgxODE4O3N0cm9rZS13aWR0aDoxLjA7Ii8+PHRleHQgZmlsbD0iIzAwMDAwMCIgZm9udC1mYW1pbHk9InNhbnMtc2VyaWYiIGZvbnQtc2l6ZT0iMTMiIGxlbmd0aEFkanVzdD0ic3BhY2luZyIgdGV4dExlbmd0aD0iNjIiIHg9IjQ1OC43NSIgeT0iNjE3LjM0OTEiPmdlbmVyYXRlczwvdGV4dD48L2c+PCEtLWxpbmsgU3R1ZGVudCB0byBTdHVkZW50UmVjb3JkLS0+PGcgaWQ9ImxpbmtfU3R1ZGVudF9TdHVkZW50UmVjb3JkIj48cGF0aCBjb2RlTGluZT0iMTQ3IiBkPSJNNTgxLDQ0MS4wMiBDNTgxLDQ2MC42NSA1ODEsNDY1LjY0IDU4MSw0ODQuODcgIiBmaWxsPSJub25lIiBpZD0iU3R1ZGVudC1TdHVkZW50UmVjb3JkIiBzdHlsZT0ic3Ryb2tlOiMxODE4MTg7c3Ryb2tlLXdpZHRoOjEuMDsiLz48bGluZSBzdHlsZT0ic3Ryb2tlOiMxODE4MTg7c3Ryb2tlLXdpZHRoOjEuMDsiIHgxPSI1NzciIHgyPSI1ODUiIHkxPSI0MzcuMDIiIHkyPSI0MzcuMDIiLz48bGluZSBzdHlsZT0ic3Ryb2tlOiMxODE4MTg7c3Ryb2tlLXdpZHRoOjEuMDsiIHgxPSI1NzciIHgyPSI1ODUiIHkxPSI0NDAuMDIiIHkyPSI0NDAuMDIiLz48bGluZSBzdHlsZT0ic3Ryb2tlOiMxODE4MTg7c3Ryb2tlLXdpZHRoOjEuMDsiIHgxPSI1ODEiIHgyPSI1ODEiIHkxPSI0NDEuMDIiIHkyPSI0MzMuMDIiLz48bGluZSBzdHlsZT0ic3Ryb2tlOiMxODE4MTg7c3Ryb2tlLXdpZHRoOjEuMDsiIHgxPSI1ODUiIHgyPSI1NzciIHkxPSI0ODguODciIHkyPSI0ODguODciLz48bGluZSBzdHlsZT0ic3Ryb2tlOiMxODE4MTg7c3Ryb2tlLXdpZHRoOjEuMDsiIHgxPSI1ODUiIHgyPSI1NzciIHkxPSI0ODUuODciIHkyPSI0ODUuODciLz48bGluZSBzdHlsZT0ic3Ryb2tlOiMxODE4MTg7c3Ryb2tlLXdpZHRoOjEuMDsiIHgxPSI1ODEiIHgyPSI1ODEiIHkxPSI0ODQuODciIHkyPSI0OTIuODciLz48dGV4dCBmaWxsPSIjMDAwMDAwIiBmb250LWZhbWlseT0ic2Fucy1zZXJpZiIgZm9udC1zaXplPSIxMyIgbGVuZ3RoQWRqdXN0PSJzcGFjaW5nIiB0ZXh0TGVuZ3RoPSIyMSIgeD0iNTU5IiB5PSI0NjEuMjM5MSI+aGFzPC90ZXh0PjwvZz48IS0tbGluayBUaW1lVGFibGUgdG8gU2Vzc2lvbi0tPjxnIGlkPSJsaW5rX1RpbWVUYWJsZV9TZXNzaW9uIj48cGF0aCBjb2RlTGluZT0iMTQ4IiBkPSJNNjIsNDI2LjE2IEM2Miw0NTIuMTcgNjIsNDU2LjM4IDYyLDQ4Mi4zOSAiIGZpbGw9Im5vbmUiIGlkPSJUaW1lVGFibGUtU2Vzc2lvbiIgc3R5bGU9InN0cm9rZTojMTgxODE4O3N0cm9rZS13aWR0aDoxLjA7Ii8+PGxpbmUgc3R5bGU9InN0cm9rZTojMTgxODE4O3N0cm9rZS13aWR0aDoxLjA7IiB4MT0iNTgiIHgyPSI2NiIgeTE9IjQyMi4xNiIgeTI9IjQyMi4xNiIvPjxsaW5lIHN0eWxlPSJzdHJva2U6IzE4MTgxODtzdHJva2Utd2lkdGg6MS4wOyIgeDE9IjU4IiB4Mj0iNjYiIHkxPSI0MjUuMTYiIHkyPSI0MjUuMTYiLz48bGluZSBzdHlsZT0ic3Ryb2tlOiMxODE4MTg7c3Ryb2tlLXdpZHRoOjEuMDsiIHgxPSI2MiIgeDI9IjYyIiB5MT0iNDI2LjE2IiB5Mj0iNDE4LjE2Ii8+PGxpbmUgc3R5bGU9InN0cm9rZTojMTgxODE4O3N0cm9rZS13aWR0aDoxLjA7IiB4MT0iNjIiIHgyPSI2OCIgeTE9IjQ5Mi4zOSIgeTI9IjUwMC4zOSIvPjxsaW5lIHN0eWxlPSJzdHJva2U6IzE4MTgxODtzdHJva2Utd2lkdGg6MS4wOyIgeDE9IjYyIiB4Mj0iNTYiIHkxPSI0OTIuMzkiIHkyPSI1MDAuMzkiLz48bGluZSBzdHlsZT0ic3Ryb2tlOiMxODE4MTg7c3Ryb2tlLXdpZHRoOjEuMDsiIHgxPSI2MiIgeDI9IjYyIiB5MT0iNDkyLjM5IiB5Mj0iNTAwLjM5Ii8+PGVsbGlwc2UgY3g9IjYyIiBjeT0iNDg2LjM5IiBmaWxsPSJub25lIiByeD0iNCIgcnk9IjQiIHN0eWxlPSJzdHJva2U6IzE4MTgxODtzdHJva2Utd2lkdGg6MS4wOyIvPjx0ZXh0IGZpbGw9IiMwMDAwMDAiIGZvbnQtZmFtaWx5PSJzYW5zLXNlcmlmIiBmb250LXNpemU9IjEzIiBsZW5ndGhBZGp1c3Q9InNwYWNpbmciIHRleHRMZW5ndGg9IjU0IiB4PSI3IiB5PSI0NTcuNTU5MSI+Y29udGFpbnM8L3RleHQ+PC9nPjwhLS1saW5rIFRlYWNoZXIgdG8gU2Vzc2lvbi0tPjxnIGlkPSJsaW5rX1RlYWNoZXJfU2Vzc2lvbiI+PHBhdGggY29kZUxpbmU9IjE0OSIgZD0iTTE3Nyw0MjYuNCBDMTc3LDQ2OS43NyAxNzcsNTEyIDE3Nyw1MTIgQzE3Nyw1MTIgMTU5LjYyLDUxMiAxMjguMSw1MTIgIiBmaWxsPSJub25lIiBpZD0iVGVhY2hlci1TZXNzaW9uIiBzdHlsZT0ic3Ryb2tlOiMxODE4MTg7c3Ryb2tlLXdpZHRoOjEuMDsiLz48bGluZSBzdHlsZT0ic3Ryb2tlOiMxODE4MTg7c3Ryb2tlLXdpZHRoOjEuMDsiIHgxPSIxNzMiIHgyPSIxODEiIHkxPSI0MjIuNCIgeTI9IjQyMi40Ii8+PGxpbmUgc3R5bGU9InN0cm9rZTojMTgxODE4O3N0cm9rZS13aWR0aDoxLjA7IiB4MT0iMTczIiB4Mj0iMTgxIiB5MT0iNDI1LjQiIHkyPSI0MjUuNCIvPjxsaW5lIHN0eWxlPSJzdHJva2U6IzE4MTgxODtzdHJva2Utd2lkdGg6MS4wOyIgeDE9IjE3NyIgeDI9IjE3NyIgeTE9IjQyNi40IiB5Mj0iNDE4LjQiLz48bGluZSBzdHlsZT0ic3Ryb2tlOiMxODE4MTg7c3Ryb2tlLXdpZHRoOjEuMDsiIHgxPSIxMTguMSIgeDI9IjExMC4xIiB5MT0iNTEyIiB5Mj0iNTE4Ii8+PGxpbmUgc3R5bGU9InN0cm9rZTojMTgxODE4O3N0cm9rZS13aWR0aDoxLjA7IiB4MT0iMTE4LjEiIHgyPSIxMTAuMSIgeTE9IjUxMiIgeTI9IjUwNiIvPjxsaW5lIHN0eWxlPSJzdHJva2U6IzE4MTgxODtzdHJva2Utd2lkdGg6MS4wOyIgeDE9IjExOC4xIiB4Mj0iMTEwLjEiIHkxPSI1MTIiIHkyPSI1MTIiLz48ZWxsaXBzZSBjeD0iMTI0LjEiIGN5PSI1MTIiIGZpbGw9Im5vbmUiIHJ4PSI0IiByeT0iNCIgc3R5bGU9InN0cm9rZTojMTgxODE4O3N0cm9rZS13aWR0aDoxLjA7Ii8+PHRleHQgZmlsbD0iIzAwMDAwMCIgZm9udC1mYW1pbHk9InNhbnMtc2VyaWYiIGZvbnQtc2l6ZT0iMTMiIGxlbmd0aEFkanVzdD0ic3BhY2luZyIgdGV4dExlbmd0aD0iNDgiIHg9IjEyOCIgeT0iNDk2LjkzOTEiPnRlYWNoZXM8L3RleHQ+PC9nPjwhLS1saW5rIFN0dWRlbnRSZWNvcmQgdG8gQXNzZXNzbWVudC0tPjxnIGlkPSJsaW5rX1N0dWRlbnRSZWNvcmRfQXNzZXNzbWVudCI+PHBhdGggY29kZUxpbmU9IjE1MCIgZD0iTTUyNy4zLDYyOCBDNDY5LjI1LDYyOCAzODgsNjI4IDM4OCw2MjggQzM4OCw2MjggMzg4LDY0MC45NyAzODgsNjcyLjkxICIgZmlsbD0ibm9uZSIgaWQ9IlN0dWRlbnRSZWNvcmQtQXNzZXNzbWVudCIgc3R5bGU9InN0cm9rZTojMTgxODE4O3N0cm9rZS13aWR0aDoxLjA7Ii8+PGxpbmUgc3R5bGU9InN0cm9rZTojMTgxODE4O3N0cm9rZS13aWR0aDoxLjA7IiB4MT0iNTMxLjMiIHgyPSI1MzEuMyIgeTE9IjYyNCIgeTI9IjYzMiIvPjxsaW5lIHN0eWxlPSJzdHJva2U6IzE4MTgxODtzdHJva2Utd2lkdGg6MS4wOyIgeDE9IjUyOC4zIiB4Mj0iNTI4LjMiIHkxPSI2MjQiIHkyPSI2MzIiLz48bGluZSBzdHlsZT0ic3Ryb2tlOiMxODE4MTg7c3Ryb2tlLXdpZHRoOjEuMDsiIHgxPSI1MjcuMyIgeDI9IjUzNS4zIiB5MT0iNjI4IiB5Mj0iNjI4Ii8+PGxpbmUgc3R5bGU9InN0cm9rZTojMTgxODE4O3N0cm9rZS13aWR0aDoxLjA7IiB4MT0iMzg4IiB4Mj0iMzk0IiB5MT0iNjgyLjkxIiB5Mj0iNjkwLjkxIi8+PGxpbmUgc3R5bGU9InN0cm9rZTojMTgxODE4O3N0cm9rZS13aWR0aDoxLjA7IiB4MT0iMzg4IiB4Mj0iMzgyIiB5MT0iNjgyLjkxIiB5Mj0iNjkwLjkxIi8+PGxpbmUgc3R5bGU9InN0cm9rZTojMTgxODE4O3N0cm9rZS13aWR0aDoxLjA7IiB4MT0iMzg4IiB4Mj0iMzg4IiB5MT0iNjgyLjkxIiB5Mj0iNjkwLjkxIi8+PGVsbGlwc2UgY3g9IjM4OCIgY3k9IjY3Ni45MSIgZmlsbD0ibm9uZSIgcng9IjQiIHJ5PSI0IiBzdHlsZT0ic3Ryb2tlOiMxODE4MTg7c3Ryb2tlLXdpZHRoOjEuMDsiLz48dGV4dCBmaWxsPSIjMDAwMDAwIiBmb250LWZhbWlseT0ic2Fucy1zZXJpZiIgZm9udC1zaXplPSIxMyIgbGVuZ3RoQWRqdXN0PSJzcGFjaW5nIiB0ZXh0TGVuZ3RoPSI0MSIgeD0iMzg4LjIiIHk9IjY0MS4yODkxIj50cmFja3M8L3RleHQ+PC9nPjwhLS1saW5rIFN0dWRlbnRSZWNvcmQgdG8gRXhhbVJlc3VsdC0tPjxnIGlkPSJsaW5rX1N0dWRlbnRSZWNvcmRfRXhhbVJlc3VsdCI+PHBhdGggY29kZUxpbmU9IjE1MSIgZD0iTTU0OS4yNSw2MzkuMjUgQzU0OS4yNSw2NTguNTQgNTQ5LjI1LDY1My41IDU0OS4yNSw2NzIuNzkgIiBmaWxsPSJub25lIiBpZD0iU3R1ZGVudFJlY29yZC1FeGFtUmVzdWx0IiBzdHlsZT0ic3Ryb2tlOiMxODE4MTg7c3Ryb2tlLXdpZHRoOjEuMDsiLz48bGluZSBzdHlsZT0ic3Ryb2tlOiMxODE4MTg7c3Ryb2tlLXdpZHRoOjEuMDsiIHgxPSI1NDUuMjUiIHgyPSI1NTMuMjUiIHkxPSI2MzUuMjUiIHkyPSI2MzUuMjUiLz48bGluZSBzdHlsZT0ic3Ryb2tlOiMxODE4MTg7c3Ryb2tlLXdpZHRoOjEuMDsiIHgxPSI1NDUuMjUiIHgyPSI1NTMuMjUiIHkxPSI2MzguMjUiIHkyPSI2MzguMjUiLz48bGluZSBzdHlsZT0ic3Ryb2tlOiMxODE4MTg7c3Ryb2tlLXdpZHRoOjEuMDsiIHgxPSI1NDkuMjUiIHgyPSI1NDkuMjUiIHkxPSI2MzkuMjUiIHkyPSI2MzEuMjUiLz48bGluZSBzdHlsZT0ic3Ryb2tlOiMxODE4MTg7c3Ryb2tlLXdpZHRoOjEuMDsiIHgxPSI1NDkuMjUiIHgyPSI1NTUuMjUiIHkxPSI2ODIuNzkiIHkyPSI2OTAuNzkiLz48bGluZSBzdHlsZT0ic3Ryb2tlOiMxODE4MTg7c3Ryb2tlLXdpZHRoOjEuMDsiIHgxPSI1NDkuMjUiIHgyPSI1NDMuMjUiIHkxPSI2ODIuNzkiIHkyPSI2OTAuNzkiLz48bGluZSBzdHlsZT0ic3Ryb2tlOiMxODE4MTg7c3Ryb2tlLXdpZHRoOjEuMDsiIHgxPSI1NDkuMjUiIHgyPSI1NDkuMjUiIHkxPSI2ODIuNzkiIHkyPSI2OTAuNzkiLz48ZWxsaXBzZSBjeD0iNTQ5LjI1IiBjeT0iNjc2Ljc5IiBmaWxsPSJub25lIiByeD0iNCIgcnk9IjQiIHN0eWxlPSJzdHJva2U6IzE4MTgxODtzdHJva2Utd2lkdGg6MS4wOyIvPjx0ZXh0IGZpbGw9IiMwMDAwMDAiIGZvbnQtZmFtaWx5PSJzYW5zLXNlcmlmIiBmb250LXNpemU9IjEzIiBsZW5ndGhBZGp1c3Q9InNwYWNpbmciIHRleHRMZW5ndGg9IjU0IiB4PSI0OTQuMjUiIHk9IjY1OS4zMDkxIj5pbmNsdWRlczwvdGV4dD48L2c+PCEtLWxpbmsgU3R1ZGVudFJlY29yZCB0byBSZXBvcnQtLT48ZyBpZD0ibGlua19TdHVkZW50UmVjb3JkX1JlcG9ydCI+PHBhdGggY29kZUxpbmU9IjE1MiIgZD0iTTYxNS4yNSw2MzkuMjUgQzYxNS4yNSw2NjMuNjcgNjE1LjI1LDY2NC43NiA2MTUuMjUsNjg3Ljc2ICIgZmlsbD0ibm9uZSIgaWQ9IlN0dWRlbnRSZWNvcmQtUmVwb3J0IiBzdHlsZT0ic3Ryb2tlOiMxODE4MTg7c3Ryb2tlLXdpZHRoOjEuMDsiLz48bGluZSBzdHlsZT0ic3Ryb2tlOiMxODE4MTg7c3Ryb2tlLXdpZHRoOjEuMDsiIHgxPSI2MTEuMjUiIHgyPSI2MTkuMjUiIHkxPSI2MzUuMjUiIHkyPSI2MzUuMjUiLz48bGluZSBzdHlsZT0ic3Ryb2tlOiMxODE4MTg7c3Ryb2tlLXdpZHRoOjEuMDsiIHgxPSI2MTEuMjUiIHgyPSI2MTkuMjUiIHkxPSI2MzguMjUiIHkyPSI2MzguMjUiLz48bGluZSBzdHlsZT0ic3Ryb2tlOiMxODE4MTg7c3Ryb2tlLXdpZHRoOjEuMDsiIHgxPSI2MTUuMjUiIHgyPSI2MTUuMjUiIHkxPSI2MzkuMjUiIHkyPSI2MzEuMjUiLz48bGluZSBzdHlsZT0ic3Ryb2tlOiMxODE4MTg7c3Ryb2tlLXdpZHRoOjEuMDsiIHgxPSI2MTUuMjUiIHgyPSI2MjEuMjUiIHkxPSI2OTcuNzYiIHkyPSI3MDUuNzYiLz48bGluZSBzdHlsZT0ic3Ryb2tlOiMxODE4MTg7c3Ryb2tlLXdpZHRoOjEuMDsiIHgxPSI2MTUuMjUiIHgyPSI2MDkuMjUiIHkxPSI2OTcuNzYiIHkyPSI3MDUuNzYiLz48bGluZSBzdHlsZT0ic3Ryb2tlOiMxODE4MTg7c3Ryb2tlLXdpZHRoOjEuMDsiIHgxPSI2MTUuMjUiIHgyPSI2MTUuMjUiIHkxPSI2OTcuNzYiIHkyPSI3MDUuNzYiLz48ZWxsaXBzZSBjeD0iNjE1LjI1IiBjeT0iNjkxLjc2IiBmaWxsPSJub25lIiByeD0iNCIgcnk9IjQiIHN0eWxlPSJzdHJva2U6IzE4MTgxODtzdHJva2Utd2lkdGg6MS4wOyIvPjx0ZXh0IGZpbGw9IiMwMDAwMDAiIGZvbnQtZmFtaWx5PSJzYW5zLXNlcmlmIiBmb250LXNpemU9IjEzIiBsZW5ndGhBZGp1c3Q9InNwYWNpbmciIHRleHRMZW5ndGg9IjYyIiB4PSI1NTIuMjUiIHk9IjY2Ni43OTkxIj5nZW5lcmF0ZXM8L3RleHQ+PC9nPjwhLS1saW5rIFVzZXIgdG8gTG9nLS0+PGcgaWQ9ImxpbmtfVXNlcl9Mb2ciPjxwYXRoIGNvZGVMaW5lPSIxNTMiIGQ9Ik00NDIsMjI4LjA4IEM0NDIsMjU2LjUyIDQ0MiwyNjAuMDYgNDQyLDI4NC4zNiAiIGZpbGw9Im5vbmUiIGlkPSJVc2VyLUxvZyIgc3R5bGU9InN0cm9rZTojMTgxODE4O3N0cm9rZS13aWR0aDoxLjA7Ii8+PGxpbmUgc3R5bGU9InN0cm9rZTojMTgxODE4O3N0cm9rZS13aWR0aDoxLjA7IiB4MT0iNDM4IiB4Mj0iNDQ2IiB5MT0iMjI0LjA4IiB5Mj0iMjI0LjA4Ii8+PGxpbmUgc3R5bGU9InN0cm9rZTojMTgxODE4O3N0cm9rZS13aWR0aDoxLjA7IiB4MT0iNDM4IiB4Mj0iNDQ2IiB5MT0iMjI3LjA4IiB5Mj0iMjI3LjA4Ii8+PGxpbmUgc3R5bGU9InN0cm9rZTojMTgxODE4O3N0cm9rZS13aWR0aDoxLjA7IiB4MT0iNDQyIiB4Mj0iNDQyIiB5MT0iMjI4LjA4IiB5Mj0iMjIwLjA4Ii8+PGxpbmUgc3R5bGU9InN0cm9rZTojMTgxODE4O3N0cm9rZS13aWR0aDoxLjA7IiB4MT0iNDQyIiB4Mj0iNDQ4IiB5MT0iMjk0LjM2IiB5Mj0iMzAyLjM2Ii8+PGxpbmUgc3R5bGU9InN0cm9rZTojMTgxODE4O3N0cm9rZS13aWR0aDoxLjA7IiB4MT0iNDQyIiB4Mj0iNDM2IiB5MT0iMjk0LjM2IiB5Mj0iMzAyLjM2Ii8+PGxpbmUgc3R5bGU9InN0cm9rZTojMTgxODE4O3N0cm9rZS13aWR0aDoxLjA7IiB4MT0iNDQyIiB4Mj0iNDQyIiB5MT0iMjk0LjM2IiB5Mj0iMzAyLjM2Ii8+PGVsbGlwc2UgY3g9IjQ0MiIgY3k9IjI4OC4zNiIgZmlsbD0ibm9uZSIgcng9IjQiIHJ5PSI0IiBzdHlsZT0ic3Ryb2tlOiMxODE4MTg7c3Ryb2tlLXdpZHRoOjEuMDsiLz48dGV4dCBmaWxsPSIjMDAwMDAwIiBmb250LWZhbWlseT0ic2Fucy1zZXJpZiIgZm9udC1zaXplPSIxMyIgbGVuZ3RoQWRqdXN0PSJzcGFjaW5nIiB0ZXh0TGVuZ3RoPSI0OCIgeD0iMzkzIiB5PSIyNTkuNTA5MSI+Y3JlYXRlczwvdGV4dD48L2c+PCEtLVNSQz1bYkxMREt6aW00QnR4THdZdkswd1B0WmlDQ19JM2JZYmI2NFdGRko0UlFIRUJvOThob0hHRnVSenRSVGNvZDNYWGNmRWJWVGZ6LV9Mb21nd1hEZkxkZTBMcGxiUjg3N2VselRmYnhtSWtmNFBNTWJjMGhIeXNNQnpfRmNMZG9fRlI3LXB2eENGb0Y0OU1uZzlTd252b0lWUkNSUUdrbUtCMTU0NXlOSThwcmtTY293TDBMWTF6MlhTRXBnRDVxcTJ3Mm91akx2WGJnQnRxRFZsYnFCQU5aRDRsOUlGNVFObGRVNndDa1hCamVJQWlYVzgzNmZweFFzb21oQUhyX2dPdEFLV0VNODFLdUtMa1RCVzM4SW13NXk3TlBZcnJVdkJrV2Rsdlg5ck5sS1BCakJKRk5ZRlpVcnk5LWZtV3hPQmJna0VVTGd3WHRqLWxCT1dHbTI0NUNvNG9RY2tLQWtaejVfMXpZZlFFRHFGNnBWNnBxSHd1M3Z2QUk4V2o0N1ctTUtxVkI2eUg0cVdYVjRDWGlBa01acUdtYkVkSEk0dGJZRHAtTEEzYUlkOWU0cVlnNHJCd1pZMmNBWElpS3FIc0UyUFMxa1V0cjBla0lyMUpoaGo5RVB1WWIyS2J1Y0VQMXp5TmVmMXdtWXlxenMtd3ZQcGN3SGdWS0FLa2RRRlJPZGZPLVdjNzI3Z1dIbWd4eDFzdGllcDM4SWdDYlZWNldfZTlUa0ZJQmxNLVkxc0FYS2JPVjdzY0ZKcVNGb3ZLd2FacW1LSGI4Ujk4OGVfVHR3NmhyQjRhcXhlWEZQWWd2eXhzNTM3M09MeWkzaFRZdEJ3NUI3MDFJbkF2bW9vYzV1eTYxcU5MNVZ3OWZiZlNNYkNDZnI0bnh3Yk56RjJPT1lMYkYzQlZwakR1RHdJeHZIVm5NcTJUMUJwM2FnSnJJQm42TWlTekl3RWtLSURyNENNZEVpMHZvR1RFd1RhVFNiQkpfckVyN0hFbFJBREd0c0FQV1RETjhWYmwxQmlsQVUyOVlHM0RVdDBrUU82UUpLWmRZeEp2c0ZPQ1ZWSEtHQWZnS1J3WFNQeC0zemUwOXJIU3JLd3Rvc05maWxRbFFCa1RweXJCNUZjRlIyT1RXemQ4czBsamYzN2VvQUhmYUF6ZXBkZlZWVG40RldkNEdSQ2JwaEFVcGdrUHB4VlJMNVc4SDRLamY3VXBOTHpaNUJUOFMtM3NWQk5vRzdPRjZ6cHRxTGpmUjRKNWNvM2pKTUJqVGZ5bV9RbWJDSGVTbkhZRjY0NXBRNEI1Yk90OVgtS0F5UVhGVWZ6R1dXYVJES0podDR6Y3hvdG1wSTdlRTB0Z2FJQkc4TjJ0YUVEeXFvdXQwdmxLLW55MF0tLT48L2c+PC9zdmc+;" vertex="1" parent="1">
            <mxGeometry x="110" y="-120" width="787" height="835" as="geometry" />
          </mxCell>
        </UserObject>
      </root>
    </mxGraphModel>
  </diagram>
</mxfile>
